<svg xmlns="http://www.w3.org/2000/svg" xmlns:xlink="http://www.w3.org/1999/xlink" width="1928" height="1098" viewBox="0 0 1928 1098">
  <defs>
    <filter id="Rectangle_415" x="1294" y="0" width="634" height="1098" filterUnits="userSpaceOnUse">
      <feOffset dy="3" input="SourceAlpha"/>
      <feGaussianBlur stdDeviation="3" result="blur"/>
      <feFlood flood-opacity="0.161"/>
      <feComposite operator="in" in2="blur"/>
      <feComposite in="SourceGraphic"/>
    </filter>
    <filter id="Rectangle_416" x="1294" y="0" width="634" height="195" filterUnits="userSpaceOnUse">
      <feOffset dy="3" input="SourceAlpha"/>
      <feGaussianBlur stdDeviation="3" result="blur-2"/>
      <feFlood flood-opacity="0.161"/>
      <feComposite operator="in" in2="blur-2"/>
      <feComposite in="SourceGraphic"/>
    </filter>
    <filter id="Ellipse_69" x="1347" y="51" width="78" height="78" filterUnits="userSpaceOnUse">
      <feOffset dy="3" input="SourceAlpha"/>
      <feGaussianBlur stdDeviation="3" result="blur-3"/>
      <feFlood flood-opacity="0.161"/>
      <feComposite operator="in" in2="blur-3"/>
      <feComposite in="SourceGraphic"/>
    </filter>
    <filter id="Rectangle_417" x="1449" y="63" width="411" height="55" filterUnits="userSpaceOnUse">
      <feOffset dy="3" input="SourceAlpha"/>
      <feGaussianBlur stdDeviation="3" result="blur-4"/>
      <feFlood flood-opacity="0.161"/>
      <feComposite operator="in" in2="blur-4"/>
      <feComposite in="SourceGraphic"/>
    </filter>
    <filter id="Rectangle_418" x="1424" y="231" width="411" height="55" filterUnits="userSpaceOnUse">
      <feOffset dy="3" input="SourceAlpha"/>
      <feGaussianBlur stdDeviation="3" result="blur-5"/>
      <feFlood flood-opacity="0.161"/>
      <feComposite operator="in" in2="blur-5"/>
      <feComposite in="SourceGraphic"/>
    </filter>
    <filter id="Rectangle_419" x="1424" y="327" width="411" height="55" filterUnits="userSpaceOnUse">
      <feOffset dy="3" input="SourceAlpha"/>
      <feGaussianBlur stdDeviation="3" result="blur-6"/>
      <feFlood flood-opacity="0.161"/>
      <feComposite operator="in" in2="blur-6"/>
      <feComposite in="SourceGraphic"/>
    </filter>
    <filter id="Rectangle_420" x="1424" y="422" width="411" height="55" filterUnits="userSpaceOnUse">
      <feOffset dy="3" input="SourceAlpha"/>
      <feGaussianBlur stdDeviation="3" result="blur-7"/>
      <feFlood flood-opacity="0.161"/>
      <feComposite operator="in" in2="blur-7"/>
      <feComposite in="SourceGraphic"/>
    </filter>
    <filter id="Rectangle_421" x="1424" y="518" width="411" height="55" filterUnits="userSpaceOnUse">
      <feOffset dy="3" input="SourceAlpha"/>
      <feGaussianBlur stdDeviation="3" result="blur-8"/>
      <feFlood flood-opacity="0.161"/>
      <feComposite operator="in" in2="blur-8"/>
      <feComposite in="SourceGraphic"/>
    </filter>
    <filter id="Rectangle_422" x="1424" y="613" width="411" height="55" filterUnits="userSpaceOnUse">
      <feOffset dy="3" input="SourceAlpha"/>
      <feGaussianBlur stdDeviation="3" result="blur-9"/>
      <feFlood flood-opacity="0.161"/>
      <feComposite operator="in" in2="blur-9"/>
      <feComposite in="SourceGraphic"/>
    </filter>
    <filter id="Rectangle_423" x="1424" y="804" width="411" height="55" filterUnits="userSpaceOnUse">
      <feOffset dy="3" input="SourceAlpha"/>
      <feGaussianBlur stdDeviation="3" result="blur-10"/>
      <feFlood flood-opacity="0.161"/>
      <feComposite operator="in" in2="blur-10"/>
      <feComposite in="SourceGraphic"/>
    </filter>
    <filter id="Rectangle_424" x="1424" y="709" width="411" height="55" filterUnits="userSpaceOnUse">
      <feOffset dy="3" input="SourceAlpha"/>
      <feGaussianBlur stdDeviation="3" result="blur-11"/>
      <feFlood flood-opacity="0.161"/>
      <feComposite operator="in" in2="blur-11"/>
      <feComposite in="SourceGraphic"/>
    </filter>
    <filter id="Rectangle_425" x="1424" y="995" width="411" height="55" filterUnits="userSpaceOnUse">
      <feOffset dy="3" input="SourceAlpha"/>
      <feGaussianBlur stdDeviation="3" result="blur-12"/>
      <feFlood flood-opacity="0.161"/>
      <feComposite operator="in" in2="blur-12"/>
      <feComposite in="SourceGraphic"/>
    </filter>
    <filter id="Rectangle_426" x="1424" y="900" width="411" height="55" filterUnits="userSpaceOnUse">
      <feOffset dy="3" input="SourceAlpha"/>
      <feGaussianBlur stdDeviation="3" result="blur-13"/>
      <feFlood flood-opacity="0.161"/>
      <feComposite operator="in" in2="blur-13"/>
      <feComposite in="SourceGraphic"/>
    </filter>
  </defs>
  <rect id="Rectangle_63" data-name="Rectangle 63" width="1920" height="1080" transform="translate(0 6)" fill="#fff"/>
  <g id="Path_98" data-name="Path 98" transform="translate(0 6)" fill="#374151">
    <path d="M 1919.5 1079.5 L 0.5 1079.5 L 0.5 0.5 L 1919.5 0.5 L 1919.5 1079.5 Z" stroke="none"/>
    <path d="M 1 1 L 1 1079 L 1919 1079 L 1919 1 L 1 1 M 0 0 L 1920 0 L 1920 1080 L 0 1080 L 0 0 Z" stroke="none" fill="#707070"/>
  </g>
  <g transform="matrix(1, 0, 0, 1, 0, 0)" filter="url(#Rectangle_415)">
    <rect id="Rectangle_415-2" data-name="Rectangle 415" width="616" height="1080" transform="translate(1303 6)" fill="#fff"/>
  </g>
  <g transform="matrix(1, 0, 0, 1, 0, 0)" filter="url(#Rectangle_416)">
    <rect id="Rectangle_416-2" data-name="Rectangle 416" width="616" height="177" transform="translate(1303 6)" fill="#5cb9da"/>
  </g>
  <g transform="matrix(1, 0, 0, 1, 0, 0)" filter="url(#Ellipse_69)">
    <circle id="Ellipse_69-2" data-name="Ellipse 69" cx="30" cy="30" r="30" transform="translate(1356 57)" fill="#f76c6c"/>
  </g>
  <g transform="matrix(1, 0, 0, 1, 0, 0)" filter="url(#Rectangle_417)">
    <rect id="Rectangle_417-2" data-name="Rectangle 417" width="393" height="37" transform="translate(1458 69)" fill="#9adba5"/>
  </g>
  <g transform="matrix(1, 0, 0, 1, 0, 0)" filter="url(#Rectangle_418)">
    <rect id="Rectangle_418-2" data-name="Rectangle 418" width="393" height="37" transform="translate(1433 237)" fill="#dcdcdc"/>
  </g>
  <g transform="matrix(1, 0, 0, 1, 0, 0)" filter="url(#Rectangle_419)">
    <rect id="Rectangle_419-2" data-name="Rectangle 419" width="393" height="37" transform="translate(1433 333)" fill="#dcdcdc"/>
  </g>
  <g transform="matrix(1, 0, 0, 1, 0, 0)" filter="url(#Rectangle_420)">
    <rect id="Rectangle_420-2" data-name="Rectangle 420" width="393" height="37" transform="translate(1433 428)" fill="#dcdcdc"/>
  </g>
  <g transform="matrix(1, 0, 0, 1, 0, 0)" filter="url(#Rectangle_421)">
    <rect id="Rectangle_421-2" data-name="Rectangle 421" width="393" height="37" transform="translate(1433 524)" fill="#dcdcdc"/>
  </g>
  <g transform="matrix(1, 0, 0, 1, 0, 0)" filter="url(#Rectangle_422)">
    <rect id="Rectangle_422-2" data-name="Rectangle 422" width="393" height="37" transform="translate(1433 619)" fill="#dcdcdc"/>
  </g>
  <g transform="matrix(1, 0, 0, 1, 0, 0)" filter="url(#Rectangle_423)">
    <rect id="Rectangle_423-2" data-name="Rectangle 423" width="393" height="37" transform="translate(1433 810)" fill="#dcdcdc"/>
  </g>
  <g transform="matrix(1, 0, 0, 1, 0, 0)" filter="url(#Rectangle_424)">
    <rect id="Rectangle_424-2" data-name="Rectangle 424" width="393" height="37" transform="translate(1433 715)" fill="#dcdcdc"/>
  </g>
  <g transform="matrix(1, 0, 0, 1, 0, 0)" filter="url(#Rectangle_425)">
    <rect id="Rectangle_425-2" data-name="Rectangle 425" width="393" height="37" transform="translate(1433 1001)" fill="#dcdcdc"/>
  </g>
  <g transform="matrix(1, 0, 0, 1, 0, 0)" filter="url(#Rectangle_426)">
    <rect id="Rectangle_426-2" data-name="Rectangle 426" width="393" height="37" transform="translate(1433 906)" fill="#dcdcdc"/>
  </g>
</svg>
