<svg xmlns="http://www.w3.org/2000/svg" width="1920" height="1080" viewBox="0 0 1920 1080">
  <path id="Path_47" data-name="Path 47" d="M0,0H1920V1080H0Z" fill="#374151"/>
  <rect id="Rectangle_193" data-name="Rectangle 193" width="807" height="45" rx="22.5" transform="translate(153 276)" fill="#79bcd4"/>
  <rect id="Rectangle_194" data-name="Rectangle 194" width="319" height="45" rx="22.5" transform="translate(153 179)" fill="#717373"/>
  <rect id="Rectangle_196" data-name="Rectangle 196" width="807" height="45" rx="22.5" transform="translate(153 374)" fill="#c2f0ca"/>
  <rect id="Rectangle_200" data-name="Rectangle 200" width="807" height="158" rx="23" transform="translate(153 471)" fill="#dcdcdc"/>
  <rect id="Rectangle_202" data-name="Rectangle 202" width="807" height="45" rx="22.5" transform="translate(153 681)" fill="#dcdcdc"/>
  <rect id="Rectangle_203" data-name="Rectangle 203" width="807" height="45" rx="22.5" transform="translate(153 772)" fill="#f8ffc9"/>
  <rect id="Rectangle_204" data-name="Rectangle 204" width="807" height="45" rx="22.5" transform="translate(153 856)" fill="#dcdcdc"/>
  <g id="Path_45" data-name="Path 45" transform="translate(1113 245)" fill="#5cb9da">
    <path d="M 390 526.5 L 23 526.5 C 19.96233367919922 526.5 17.01573371887207 525.9052124023438 14.24213314056396 524.7320556640625 C 11.56293296813965 523.598876953125 9.156599998474121 521.9764404296875 7.090133190155029 519.909912109375 C 5.023600101470947 517.8433837890625 3.40120005607605 515.4371337890625 2.267933368682861 512.7578735351562 C 1.094799995422363 509.9842529296875 0.5 507.0377197265625 0.5 504 L 0.5 23 C 0.5 19.96233367919922 1.094799995422363 17.01573371887207 2.267933368682861 14.24213314056396 C 3.40120005607605 11.56293296813965 5.023600101470947 9.156599998474121 7.090133190155029 7.090133190155029 C 9.156599998474121 5.023600101470947 11.56293296813965 3.40120005607605 14.24213314056396 2.267933368682861 C 17.01573371887207 1.094799995422363 19.96233367919922 0.5 23 0.5 L 390 0.5 C 393.0376586914062 0.5 395.9842529296875 1.094799995422363 398.7578735351562 2.267933368682861 C 401.4370727539062 3.40120005607605 403.8434143066406 5.023600101470947 405.9098815917969 7.090133190155029 C 407.9764099121094 9.156599998474121 409.5987854003906 11.56293296813965 410.7320556640625 14.24213314056396 C 411.9052124023438 17.01573371887207 412.5 19.96233367919922 412.5 23 L 412.5 504 C 412.5 507.0377197265625 411.9052124023438 509.9842529296875 410.7320556640625 512.7578735351562 C 409.5987854003906 515.4371337890625 407.9764099121094 517.8433837890625 405.9098815917969 519.909912109375 C 403.8434143066406 521.9764404296875 401.4370727539062 523.598876953125 398.7578735351562 524.7320556640625 C 395.9842529296875 525.9052124023438 393.0376586914062 526.5 390 526.5 Z" stroke="none"/>
    <path d="M 23 1 C 20.02960205078125 1 17.14852905273438 1.58154296875 14.43692016601562 2.72845458984375 C 11.8172607421875 3.83648681640625 9.464385986328125 5.4228515625 7.44366455078125 7.443603515625 C 5.4228515625 9.46441650390625 3.836456298828125 11.8172607421875 2.72845458984375 14.4368896484375 C 1.58154296875 17.14852905273438 1 20.02960205078125 1 23 L 1 504 C 1 506.9703979492188 1.58154296875 509.8514709472656 2.72845458984375 512.5631103515625 C 3.836456298828125 515.1827392578125 5.4228515625 517.5355834960938 7.44366455078125 519.556396484375 C 9.464385986328125 521.5771484375 11.8172607421875 523.1635131835938 14.43692016601562 524.2715454101562 C 17.14852905273438 525.41845703125 20.02960205078125 526 23 526 L 390 526 C 392.9703979492188 526 395.8514709472656 525.41845703125 398.5630798339844 524.2715454101562 C 401.1827392578125 523.1635131835938 403.5356140136719 521.5771484375 405.5563354492188 519.556396484375 C 407.5771484375 517.5355834960938 409.1635437011719 515.1827392578125 410.2715454101562 512.5631103515625 C 411.41845703125 509.8514709472656 412 506.9703979492188 412 504 L 412 23 C 412 20.02960205078125 411.41845703125 17.14852905273438 410.2715454101562 14.4368896484375 C 409.1635437011719 11.8172607421875 407.5771484375 9.46441650390625 405.5563354492188 7.443603515625 C 403.5356140136719 5.4228515625 401.1827392578125 3.83648681640625 398.5630798339844 2.72845458984375 C 395.8514709472656 1.58154296875 392.9703979492188 1 390 1 L 23 1 M 23 0 L 390 0 C 402.7025451660156 0 413 10.29742431640625 413 23 L 413 504 C 413 516.7025756835938 402.7025451660156 527 390 527 L 23 527 C 10.29745483398438 527 0 516.7025756835938 0 504 L 0 23 C 0 10.29742431640625 10.29745483398438 0 23 0 Z" stroke="none" fill="#959595"/>
  </g>
  <g id="Rectangle_206" data-name="Rectangle 206" transform="translate(1449 397)" fill="#9adba5" stroke="#959595" stroke-width="1">
    <rect width="413" height="527" rx="23" stroke="none"/>
    <rect x="0.5" y="0.5" width="412" height="526" rx="22.5" fill="none"/>
  </g>
  <path id="Path_46" data-name="Path 46" d="M75,0A75,75,0,1,1,0,75,75,75,0,0,1,75,0Z" transform="translate(1225 321)" fill="#7fc9e3"/>
  <path id="Polygon_1" data-name="Polygon 1" d="M87.5,0,175,152H0Z" transform="translate(1568 493)" fill="#c2f0ca"/>
</svg>
