<svg xmlns="http://www.w3.org/2000/svg" width="1920" height="1080" viewBox="0 0 1920 1080">
  <rect id="Rectangle_63" data-name="Rectangle 63" width="1920" height="1080" fill="#374151"/>
  <path id="Path_36" data-name="Path 36" d="M34,0H225a34,34,0,0,1,34,34v9a34,34,0,0,1-34,34H34A34,34,0,0,1,0,43V34A34,34,0,0,1,34,0Z" transform="translate(712 205)" fill="#79bcd4"/>
  <rect id="Rectangle_153" data-name="Rectangle 153" width="339" height="43" rx="21.5" transform="translate(672 307)" fill="#dcdcdc"/>
  <path id="Path_95" data-name="Path 95" d="M34,0H225a34,34,0,0,1,34,34v9a34,34,0,0,1-34,34H34A34,34,0,0,1,0,43V34A34,34,0,0,1,34,0Z" transform="translate(712 443)" fill="#e5a0a0"/>
  <rect id="Rectangle_402" data-name="Rectangle 402" width="339" height="43" rx="21.5" transform="translate(672 545)" fill="#dcdcdc"/>
  <path id="Path_96" data-name="Path 96" d="M34,0H225a34,34,0,0,1,34,34v9a34,34,0,0,1-34,34H34A34,34,0,0,1,0,43V34A34,34,0,0,1,34,0Z" transform="translate(712 681)" fill="#c2f0ca"/>
  <rect id="Rectangle_403" data-name="Rectangle 403" width="339" height="43" rx="21.5" transform="translate(672 783)" fill="#dcdcdc"/>
  <circle id="Ellipse_63" data-name="Ellipse 63" cx="30" cy="30" r="30" transform="translate(1172 244)" fill="#dcdcdc"/>
  <circle id="Ellipse_64" data-name="Ellipse 64" cx="21.5" cy="21.5" r="21.5" transform="translate(1181 253)" fill="#5cb9da"/>
  <circle id="Ellipse_65" data-name="Ellipse 65" cx="30" cy="30" r="30" transform="translate(1173 485)" fill="#dcdcdc"/>
  <circle id="Ellipse_66" data-name="Ellipse 66" cx="21.5" cy="21.5" r="21.5" transform="translate(1182 494)" fill="#e5a0a0"/>
  <circle id="Ellipse_67" data-name="Ellipse 67" cx="30" cy="30" r="30" transform="translate(1172 726)" fill="#dcdcdc"/>
  <circle id="Ellipse_68" data-name="Ellipse 68" cx="21.5" cy="21.5" r="21.5" transform="translate(1181 735)" fill="#c2f0ca"/>
  <g id="Rectangle_404" data-name="Rectangle 404" transform="translate(559 144)" fill="rgba(255,255,255,0)" stroke="#bfbfbf" stroke-width="5">
    <rect width="800" height="793" rx="126" stroke="none"/>
    <rect x="2.5" y="2.5" width="795" height="788" rx="123.5" fill="none"/>
  </g>
</svg>
