<svg xmlns="http://www.w3.org/2000/svg" xmlns:xlink="http://www.w3.org/1999/xlink" width="1920" height="1080" viewBox="0 0 1920 1080">
  <defs>
    <filter id="Ellipse_56" x="170" y="419" width="203" height="203" filterUnits="userSpaceOnUse">
      <feOffset dy="3" input="SourceAlpha"/>
      <feGaussianBlur stdDeviation="3" result="blur"/>
      <feFlood flood-opacity="0.161"/>
      <feComposite operator="in" in2="blur"/>
      <feComposite in="SourceGraphic"/>
    </filter>
    <filter id="Ellipse_57" x="630" y="419" width="202" height="203" filterUnits="userSpaceOnUse">
      <feOffset dy="3" input="SourceAlpha"/>
      <feGaussianBlur stdDeviation="3" result="blur-2"/>
      <feFlood flood-opacity="0.161"/>
      <feComposite operator="in" in2="blur-2"/>
      <feComposite in="SourceGraphic"/>
    </filter>
    <filter id="Ellipse_58" x="1088" y="419" width="203" height="203" filterUnits="userSpaceOnUse">
      <feOffset dy="3" input="SourceAlpha"/>
      <feGaussianBlur stdDeviation="3" result="blur-3"/>
      <feFlood flood-opacity="0.161"/>
      <feComposite operator="in" in2="blur-3"/>
      <feComposite in="SourceGraphic"/>
    </filter>
    <filter id="Ellipse_59" x="1547" y="419" width="203" height="203" filterUnits="userSpaceOnUse">
      <feOffset dy="3" input="SourceAlpha"/>
      <feGaussianBlur stdDeviation="3" result="blur-4"/>
      <feFlood flood-opacity="0.161"/>
      <feComposite operator="in" in2="blur-4"/>
      <feComposite in="SourceGraphic"/>
    </filter>
  </defs>
  <path id="Path_87" data-name="Path 87" d="M0,0H1920V1080H0Z" fill="#374151"/>
  <g transform="matrix(1, 0, 0, 1, 0, 0)" filter="url(#Ellipse_56)">
    <circle id="Ellipse_56-2" data-name="Ellipse 56" cx="92.5" cy="92.5" r="92.5" transform="translate(179 425)" fill="#9adba5"/>
  </g>
  <g transform="matrix(1, 0, 0, 1, 0, 0)" filter="url(#Ellipse_57)">
    <ellipse id="Ellipse_57-2" data-name="Ellipse 57" cx="92" cy="92.5" rx="92" ry="92.5" transform="translate(639 425)" fill="#e5a0a0"/>
  </g>
  <g transform="matrix(1, 0, 0, 1, 0, 0)" filter="url(#Ellipse_58)">
    <circle id="Ellipse_58-2" data-name="Ellipse 58" cx="92.5" cy="92.5" r="92.5" transform="translate(1097 425)" fill="#79bcd4"/>
  </g>
  <g transform="matrix(1, 0, 0, 1, 0, 0)" filter="url(#Ellipse_59)">
    <circle id="Ellipse_59-2" data-name="Ellipse 59" cx="92.5" cy="92.5" r="92.5" transform="translate(1556 425)" fill="#f8ffc9"/>
  </g>
  <path id="Path_85" data-name="Path 85" d="M0,0H274.691" transform="translate(364.514 518.082)" fill="none" stroke="#9adba5" stroke-width="4"/>
  <path id="Path_86" data-name="Path 86" d="M0,0H273.389" transform="translate(824.068 518.082)" fill="none" stroke="#e5a0a0" stroke-width="4"/>
  <line id="Line_8" data-name="Line 8" x2="274.691" transform="translate(1282.319 518.082)" fill="none" stroke="#79bcd4" stroke-width="4"/>
</svg>
