<svg xmlns="http://www.w3.org/2000/svg" xmlns:xlink="http://www.w3.org/1999/xlink" width="1920" height="1080" viewBox="0 0 1920 1080">
  <defs>
    <filter id="Rectangle_382" x="714" y="222" width="493" height="186" filterUnits="userSpaceOnUse">
      <feOffset dy="3" input="SourceAlpha"/>
      <feGaussianBlur stdDeviation="3" result="blur"/>
      <feFlood flood-opacity="0.161"/>
      <feComposite operator="in" in2="blur"/>
      <feComposite in="SourceGraphic"/>
    </filter>
    <filter id="Rectangle_383" x="714" y="450" width="493" height="186" filterUnits="userSpaceOnUse">
      <feOffset dy="3" input="SourceAlpha"/>
      <feGaussianBlur stdDeviation="3" result="blur-2"/>
      <feFlood flood-opacity="0.161"/>
      <feComposite operator="in" in2="blur-2"/>
      <feComposite in="SourceGraphic"/>
    </filter>
    <filter id="Rectangle_384" x="714" y="678" width="493" height="186" filterUnits="userSpaceOnUse">
      <feOffset dy="3" input="SourceAlpha"/>
      <feGaussianBlur stdDeviation="3" result="blur-3"/>
      <feFlood flood-opacity="0.161"/>
      <feComposite operator="in" in2="blur-3"/>
      <feComposite in="SourceGraphic"/>
    </filter>
  </defs>
  <rect id="Rectangle_352" data-name="Rectangle 352" width="1920" height="1080" fill="#374151"/>
  <g transform="matrix(1, 0, 0, 1, 0, 0)" filter="url(#Rectangle_382)">
    <rect id="Rectangle_382-2" data-name="Rectangle 382" width="475" height="168" rx="84" transform="translate(723 228)" fill="#99b0a2"/>
  </g>
  <ellipse id="Ellipse_60" data-name="Ellipse 60" cx="78.5" cy="78" rx="78.5" ry="78" transform="translate(746 234)" fill="#9adba5"/>
  <g transform="matrix(1, 0, 0, 1, 0, 0)" filter="url(#Rectangle_383)">
    <rect id="Rectangle_383-2" data-name="Rectangle 383" width="475" height="168" rx="84" transform="translate(723 456)" fill="#b09999"/>
  </g>
  <ellipse id="Ellipse_61" data-name="Ellipse 61" cx="78.5" cy="78" rx="78.5" ry="78" transform="translate(746 462)" fill="#f76c6c"/>
  <g transform="matrix(1, 0, 0, 1, 0, 0)" filter="url(#Rectangle_384)">
    <rect id="Rectangle_384-2" data-name="Rectangle 384" width="475" height="168" rx="84" transform="translate(723 684)" fill="#999fb0"/>
  </g>
  <ellipse id="Ellipse_62" data-name="Ellipse 62" cx="78.5" cy="78" rx="78.5" ry="78" transform="translate(746 690)" fill="#5cb9da"/>
</svg>
