<svg xmlns="http://www.w3.org/2000/svg" width="1920" height="1080" viewBox="0 0 1920 1080">
  <path id="Path_91" data-name="Path 91" d="M0,0H1920V1080H0Z" fill="#374151"/>
  <rect id="Rectangle_363" data-name="Rectangle 363" width="1284" height="111" transform="translate(319 211)" fill="#dcec72"/>
  <rect id="Rectangle_364" data-name="Rectangle 364" width="1284" height="111" transform="translate(321 377)" fill="#9adba5"/>
  <rect id="Rectangle_365" data-name="Rectangle 365" width="1284" height="111" transform="translate(321 543)" fill="#5cb9da"/>
  <rect id="Rectangle_366" data-name="Rectangle 366" width="1284" height="111" transform="translate(321 709)" fill="#f76c6c"/>
  <path id="info_FILL1_wght400_GRAD0_opsz48" d="M113.57,230h5.4V208.4h-5.4ZM116,201.74a2.924,2.924,0,0,0,2.117-.828,2.742,2.742,0,0,0,.855-2.052,3.009,3.009,0,0,0-.853-2.18,2.984,2.984,0,0,0-4.232,0,3.006,3.006,0,0,0-.855,2.18,2.744,2.744,0,0,0,.853,2.052A2.919,2.919,0,0,0,116,201.74Zm.026,46.26a34.846,34.846,0,0,1-13.995-2.835,36.366,36.366,0,0,1-19.194-19.2,36.031,36.031,0,0,1,0-28.019,36.021,36.021,0,0,1,7.74-11.416,36.949,36.949,0,0,1,11.461-7.7,36.032,36.032,0,0,1,28.019,0,35.982,35.982,0,0,1,19.111,19.125,36.013,36.013,0,0,1,0,28.011,36.767,36.767,0,0,1-7.695,11.437,36.344,36.344,0,0,1-11.43,7.74A34.822,34.822,0,0,1,116.024,248Z" transform="translate(265 387)" fill="#fff"/>
  <path id="check_circle_FILL1_wght400_GRAD0_opsz48_3_" data-name="check_circle_FILL1_wght400_GRAD0_opsz48 (3)" d="M110.654,228.318l25.44-25.44-4.135-4.045-21.3,21.3L99.866,209.35,95.821,213.4Zm5.3,19.6a34.792,34.792,0,0,1-13.933-2.832,36.227,36.227,0,0,1-19.192-19.192,35.918,35.918,0,0,1,0-27.957,35.935,35.935,0,0,1,7.731-11.416,36.86,36.86,0,0,1,11.461-7.686,35.918,35.918,0,0,1,27.957,0,35.9,35.9,0,0,1,19.1,19.1,35.918,35.918,0,0,1,0,27.957,36.86,36.86,0,0,1-7.686,11.461,35.935,35.935,0,0,1-11.416,7.731A35.014,35.014,0,0,1,115.957,247.915Z" transform="translate(265.085 221.085)" fill="#fff"/>
  <path id="warning_FILL1_wght400_GRAD0_opsz48" d="M40,234.315,73.761,176l33.761,58.315Zm34.082-8.977a2.2,2.2,0,0,0,1.636-.666,2.265,2.265,0,0,0,.652-1.65,2.2,2.2,0,0,0-.666-1.636,2.265,2.265,0,0,0-1.65-.652,2.2,2.2,0,0,0-1.636.666,2.265,2.265,0,0,0-.652,1.65,2.2,2.2,0,0,0,.666,1.636A2.265,2.265,0,0,0,74.082,225.338Zm-2.315-8.517h4.6V199.633h-4.6Z" transform="translate(305 57.343)" fill="#fff"/>
  <path id="error_FILL1_wght400_GRAD0_opsz48_1_" data-name="error_FILL1_wght400_GRAD0_opsz48 (1)" d="M117.249,231.876a3.019,3.019,0,1,0-2.188-.885A2.978,2.978,0,0,0,117.249,231.876Zm-2.513-14.248h5.588V194.066h-5.588Zm2.539,32.874a36.057,36.057,0,0,1-14.481-2.934A37.629,37.629,0,0,1,82.933,227.7a37.283,37.283,0,0,1,0-28.992A37.273,37.273,0,0,1,90.942,186.9a38.233,38.233,0,0,1,11.859-7.962,37.283,37.283,0,0,1,28.992,0,37.231,37.231,0,0,1,19.775,19.789,37.264,37.264,0,0,1,0,28.984,38.045,38.045,0,0,1-7.962,11.835,37.607,37.607,0,0,1-11.827,8.009A36.03,36.03,0,0,1,117.275,250.5Z" transform="translate(265.085 551.25)" fill="#fff"/>
</svg>
