<svg xmlns="http://www.w3.org/2000/svg" xmlns:xlink="http://www.w3.org/1999/xlink" width="1920" height="1080" viewBox="0 0 1920 1080">
  <defs>
    <filter id="Rectangle_151" x="699" y="325" width="521" height="415" filterUnits="userSpaceOnUse">
      <feOffset dy="3" input="SourceAlpha"/>
      <feGaussianBlur stdDeviation="3" result="blur"/>
      <feFlood flood-opacity="0.161"/>
      <feComposite operator="in" in2="blur"/>
      <feComposite in="SourceGraphic"/>
    </filter>
    <filter id="Rectangle_151-2" x="1332" y="325" width="521" height="415" filterUnits="userSpaceOnUse">
      <feOffset dy="3" input="SourceAlpha"/>
      <feGaussianBlur stdDeviation="3" result="blur-2"/>
      <feFlood flood-opacity="0.161"/>
      <feComposite operator="in" in2="blur-2"/>
      <feComposite in="SourceGraphic"/>
    </filter>
  </defs>
  <path id="Path_37" data-name="Path 37" d="M0,0H1920V1080H0Z" fill="#374151"/>
  <g id="Path_38" data-name="Path 38" transform="translate(66 331)" fill="#374151">
    <path d="M 502.5 396.5 L 0.5 396.5 L 0.5 0.5 L 502.5 0.5 L 502.5 396.5 Z" stroke="none"/>
    <path d="M 1 1 L 1 396 L 502 396 L 502 1 L 1 1 M 0 0 L 503 0 L 503 397 L 0 397 L 0 0 Z" stroke="none" fill="#dad7d7"/>
  </g>
  <rect id="Rectangle_53" data-name="Rectangle 53" width="259" height="77" rx="34" transform="translate(202 504)" fill="#79bcd4"/>
  <rect id="Rectangle_150" data-name="Rectangle 150" width="339" height="43" rx="21.5" transform="translate(162 606)" fill="#dcdcdc"/>
  <circle id="Ellipse_45" data-name="Ellipse 45" cx="59" cy="59" r="59" transform="translate(261 361)" fill="#c2f0ca"/>
  <g id="Group_36" data-name="Group 36" transform="translate(641)">
    <g transform="matrix(1, 0, 0, 1, -641, 0)" filter="url(#Rectangle_151)">
      <g id="Rectangle_151-3" data-name="Rectangle 151" transform="translate(708 331)" fill="#374151" stroke="#fdfdfd" stroke-width="1">
        <rect width="503" height="397" stroke="none"/>
        <rect x="0.5" y="0.5" width="502" height="396" fill="none"/>
      </g>
    </g>
    <g id="Path_36" data-name="Path 36" transform="translate(203 504)" fill="#79bcd4">
      <path d="M 225 76.5 L 34 76.5 C 29.4773006439209 76.5 25.09016609191895 75.61433410644531 20.96043395996094 73.86759948730469 C 16.97136688232422 72.18036651611328 13.38866710662842 69.76483154296875 10.31193351745605 66.68810272216797 C 7.235199928283691 63.61133193969727 4.819633483886719 60.02866744995117 3.132400035858154 56.03956604003906 C 1.385666608810425 51.90983200073242 0.5 47.52270126342773 0.5 43 L 0.5 34 C 0.5 29.4773006439209 1.385666608810425 25.09016609191895 3.132400035858154 20.96043395996094 C 4.819633483886719 16.97136688232422 7.235199928283691 13.38866710662842 10.31193351745605 10.31193351745605 C 13.38866710662842 7.235199928283691 16.97136688232422 4.819633483886719 20.96043395996094 3.132400035858154 C 25.09016609191895 1.385666608810425 29.4773006439209 0.5 34 0.5 L 225 0.5 C 229.522705078125 0.5 233.9098358154297 1.385666608810425 238.0395660400391 3.132400035858154 C 242.0286712646484 4.819633483886719 245.611328125 7.235199928283691 248.6880950927734 10.31193351745605 C 251.7648315429688 13.38866710662842 254.1803741455078 16.97136688232422 255.8675994873047 20.96043395996094 C 257.6143188476562 25.09016609191895 258.5 29.4773006439209 258.5 34 L 258.5 43 C 258.5 47.52270126342773 257.6143188476562 51.90983200073242 255.8675994873047 56.03956604003906 C 254.1803741455078 60.02866744995117 251.7648315429688 63.61133193969727 248.6880950927734 66.68810272216797 C 245.611328125 69.76483154296875 242.0286712646484 72.18036651611328 238.0395660400391 73.86759948730469 C 233.9098358154297 75.61433410644531 229.522705078125 76.5 225 76.5 Z" stroke="none"/>
      <path d="M 34 1 C 29.54457092285156 1 25.22296142578125 1.872367858886719 21.15519714355469 3.592903137207031 C 17.22569274902344 5.254936218261719 13.69647216796875 7.634498596191406 10.66546630859375 10.66546630859375 C 7.634506225585938 13.69646835327148 5.254928588867188 17.22570037841797 3.5928955078125 21.15520095825195 C 1.87237548828125 25.22296524047852 1 29.5445671081543 1 34 L 1 43 C 1 47.45539855957031 1.87237548828125 51.77700042724609 3.5928955078125 55.84476470947266 C 5.254928588867188 59.77426910400391 7.634506225585938 63.30353546142578 10.66546630859375 66.33453369140625 C 13.69647216796875 69.36550140380859 17.22569274902344 71.74506378173828 21.15519714355469 73.40709686279297 C 25.22296142578125 75.12763214111328 29.54460144042969 76 34 76 L 225 76 C 229.4553985595703 76 233.7770080566406 75.12763214111328 237.8447723388672 73.40709686279297 C 241.7742614746094 71.74506378173828 245.3035278320312 69.36550140380859 248.3345336914062 66.33453369140625 C 251.3654937744141 63.30353546142578 253.7450714111328 59.77426910400391 255.4071044921875 55.84476470947266 C 257.1276245117188 51.77700042724609 258 47.45539855957031 258 43 L 258 34 C 258 29.54460144042969 257.1276245117188 25.22296524047852 255.4071044921875 21.15520095825195 C 253.7450714111328 17.22570037841797 251.3654937744141 13.69646835327148 248.3345336914062 10.66546630859375 C 245.3035278320312 7.634498596191406 241.7742614746094 5.254936218261719 237.8447723388672 3.592903137207031 C 233.7770080566406 1.872367858886719 229.4553985595703 1 225 1 L 34 1 M 34 0 L 225 0 C 243.7776641845703 0 259 15.2223014831543 259 34 L 259 43 C 259 61.77766799926758 243.7776641845703 77 225 77 L 34 77 C 15.22230529785156 77 0 61.77766799926758 0 43 L 0 34 C 0 15.2223014831543 15.22230529785156 0 34 0 Z" stroke="none" fill="#fdfdfd"/>
    </g>
    <g id="Rectangle_153" data-name="Rectangle 153" transform="translate(163 606)" fill="#dcdcdc" stroke="#fdfdfd" stroke-width="1">
      <rect width="339" height="43" rx="21.5" stroke="none"/>
      <rect x="0.5" y="0.5" width="338" height="42" rx="21" fill="none"/>
    </g>
    <g id="Ellipse_46" data-name="Ellipse 46" transform="translate(262 361)" fill="#e5a0a0" stroke="#fdfdfd" stroke-width="1">
      <circle cx="59" cy="59" r="59" stroke="none"/>
      <circle cx="59" cy="59" r="58.5" fill="none"/>
    </g>
  </g>
  <g id="Group_37" data-name="Group 37" transform="translate(1274)">
    <g transform="matrix(1, 0, 0, 1, -1274, 0)" filter="url(#Rectangle_151-2)">
      <g id="Rectangle_151-4" data-name="Rectangle 151" transform="translate(1341 331)" fill="#374151" stroke="#eaeaea" stroke-width="1">
        <rect width="503" height="397" stroke="none"/>
        <rect x="0.5" y="0.5" width="502" height="396" fill="none"/>
      </g>
    </g>
    <g id="Rectangle_152" data-name="Rectangle 152" transform="translate(203 504)" fill="#79bcd4" stroke="#eaeaea" stroke-width="1">
      <rect width="259" height="77" rx="34" stroke="none"/>
      <rect x="0.5" y="0.5" width="258" height="76" rx="33.5" fill="none"/>
    </g>
    <g id="Rectangle_153-2" data-name="Rectangle 153" transform="translate(163 606)" fill="#dcdcdc" stroke="#eaeaea" stroke-width="1">
      <rect width="339" height="43" rx="21.5" stroke="none"/>
      <rect x="0.5" y="0.5" width="338" height="42" rx="21" fill="none"/>
    </g>
    <g id="Ellipse_46-2" data-name="Ellipse 46" transform="translate(262 361)" fill="#dcec72" stroke="#eaeaea" stroke-width="1">
      <circle cx="59" cy="59" r="59" stroke="none"/>
      <circle cx="59" cy="59" r="58.5" fill="none"/>
    </g>
  </g>
</svg>
