<svg xmlns="http://www.w3.org/2000/svg" width="1920" height="1080" viewBox="0 0 1920 1080">
  <rect id="Rectangle_180" data-name="Rectangle 180" width="1920" height="1080" fill="#fff"/>
  <rect id="Rectangle_207" data-name="Rectangle 207" width="319" height="45" rx="22.5" transform="translate(803 157)" fill="#717373"/>
  <rect id="Rectangle_208" data-name="Rectangle 208" width="807" height="45" rx="22.5" transform="translate(568 249)" fill="#dcdcdc"/>
  <g id="Path_48" data-name="Path 48" transform="translate(236 389)" fill="#5cb9da">
    <path d="M 390 526.5 L 23 526.5 C 19.96233367919922 526.5 17.01573371887207 525.9052124023438 14.24213314056396 524.7320556640625 C 11.56293296813965 523.598876953125 9.156599998474121 521.9764404296875 7.090133190155029 519.909912109375 C 5.023600101470947 517.8433837890625 3.40120005607605 515.4371337890625 2.267933368682861 512.7578735351562 C 1.094799995422363 509.9842529296875 0.5 507.0377197265625 0.5 504 L 0.5 23 C 0.5 19.96233367919922 1.094799995422363 17.01573371887207 2.267933368682861 14.24213314056396 C 3.40120005607605 11.56293296813965 5.023600101470947 9.156599998474121 7.090133190155029 7.090133190155029 C 9.156599998474121 5.023600101470947 11.56293296813965 3.40120005607605 14.24213314056396 2.267933368682861 C 17.01573371887207 1.094799995422363 19.96233367919922 0.5 23 0.5 L 390 0.5 C 393.0376586914062 0.5 395.9842529296875 1.094799995422363 398.7578735351562 2.267933368682861 C 401.4370727539062 3.40120005607605 403.8434143066406 5.023600101470947 405.9098815917969 7.090133190155029 C 407.9764099121094 9.156599998474121 409.5987854003906 11.56293296813965 410.7320556640625 14.24213314056396 C 411.9052124023438 17.01573371887207 412.5 19.96233367919922 412.5 23 L 412.5 504 C 412.5 507.0377197265625 411.9052124023438 509.9842529296875 410.7320556640625 512.7578735351562 C 409.5987854003906 515.4371337890625 407.9764099121094 517.8433837890625 405.9098815917969 519.909912109375 C 403.8434143066406 521.9764404296875 401.4370727539062 523.598876953125 398.7578735351562 524.7320556640625 C 395.9842529296875 525.9052124023438 393.0376586914062 526.5 390 526.5 Z" stroke="none"/>
    <path d="M 23 1 C 20.02960205078125 1 17.14852905273438 1.58154296875 14.43692016601562 2.72845458984375 C 11.8172607421875 3.83648681640625 9.464385986328125 5.4228515625 7.44366455078125 7.443603515625 C 5.4228515625 9.46441650390625 3.836456298828125 11.8172607421875 2.72845458984375 14.4368896484375 C 1.58154296875 17.14852905273438 1 20.02960205078125 1 23 L 1 504 C 1 506.9703979492188 1.58154296875 509.8514709472656 2.72845458984375 512.5631103515625 C 3.836456298828125 515.1827392578125 5.4228515625 517.5355834960938 7.44366455078125 519.556396484375 C 9.464385986328125 521.5771484375 11.8172607421875 523.1635131835938 14.43692016601562 524.2715454101562 C 17.14852905273438 525.41845703125 20.02960205078125 526 23 526 L 390 526 C 392.9703979492188 526 395.8514709472656 525.41845703125 398.5630798339844 524.2715454101562 C 401.1827392578125 523.1635131835938 403.5356140136719 521.5771484375 405.5563354492188 519.556396484375 C 407.5771484375 517.5355834960938 409.1635437011719 515.1827392578125 410.2715454101562 512.5631103515625 C 411.41845703125 509.8514709472656 412 506.9703979492188 412 504 L 412 23 C 412 20.02960205078125 411.41845703125 17.14852905273438 410.2715454101562 14.4368896484375 C 409.1635437011719 11.8172607421875 407.5771484375 9.46441650390625 405.5563354492188 7.443603515625 C 403.5356140136719 5.4228515625 401.1827392578125 3.83648681640625 398.5630798339844 2.72845458984375 C 395.8514709472656 1.58154296875 392.9703979492188 1 390 1 L 23 1 M 23 0 L 390 0 C 402.7025451660156 0 413 10.29742431640625 413 23 L 413 504 C 413 516.7025756835938 402.7025451660156 527 390 527 L 23 527 C 10.29745483398438 527 0 516.7025756835938 0 504 L 0 23 C 0 10.29742431640625 10.29745483398438 0 23 0 Z" stroke="none" fill="#959595"/>
  </g>
  <path id="Path_49" data-name="Path 49" d="M75,0A75,75,0,1,1,0,75,75,75,0,0,1,75,0Z" transform="translate(368 736)" fill="#7fc9e3"/>
  <rect id="Rectangle_209" data-name="Rectangle 209" width="324" height="45" rx="22.5" transform="translate(277 477)" fill="#dcdcdc"/>
  <rect id="Rectangle_210" data-name="Rectangle 210" width="324" height="45" rx="22.5" transform="translate(281 554)" fill="#dcdcdc"/>
  <rect id="Rectangle_211" data-name="Rectangle 211" width="324" height="45" rx="22.5" transform="translate(281 631)" fill="#dcdcdc"/>
  <g id="Path_50" data-name="Path 50" transform="translate(765 389)" fill="#9adba5">
    <path d="M 390 526.5 L 23 526.5 C 19.96233367919922 526.5 17.01573371887207 525.9052124023438 14.24213314056396 524.7320556640625 C 11.56293296813965 523.598876953125 9.156599998474121 521.9764404296875 7.090133190155029 519.909912109375 C 5.023600101470947 517.8433837890625 3.40120005607605 515.4371337890625 2.267933368682861 512.7578735351562 C 1.094799995422363 509.9842529296875 0.5 507.0377197265625 0.5 504 L 0.5 23 C 0.5 19.96233367919922 1.094799995422363 17.01573371887207 2.267933368682861 14.24213314056396 C 3.40120005607605 11.56293296813965 5.023600101470947 9.156599998474121 7.090133190155029 7.090133190155029 C 9.156599998474121 5.023600101470947 11.56293296813965 3.40120005607605 14.24213314056396 2.267933368682861 C 17.01573371887207 1.094799995422363 19.96233367919922 0.5 23 0.5 L 390 0.5 C 393.0376586914062 0.5 395.9842529296875 1.094799995422363 398.7578735351562 2.267933368682861 C 401.4370727539062 3.40120005607605 403.8434143066406 5.023600101470947 405.9098815917969 7.090133190155029 C 407.9764099121094 9.156599998474121 409.5987854003906 11.56293296813965 410.7320556640625 14.24213314056396 C 411.9052124023438 17.01573371887207 412.5 19.96233367919922 412.5 23 L 412.5 504 C 412.5 507.0377197265625 411.9052124023438 509.9842529296875 410.7320556640625 512.7578735351562 C 409.5987854003906 515.4371337890625 407.9764099121094 517.8433837890625 405.9098815917969 519.909912109375 C 403.8434143066406 521.9764404296875 401.4370727539062 523.598876953125 398.7578735351562 524.7320556640625 C 395.9842529296875 525.9052124023438 393.0376586914062 526.5 390 526.5 Z" stroke="none"/>
    <path d="M 23 1 C 20.02960205078125 1 17.14852905273438 1.58154296875 14.43692016601562 2.72845458984375 C 11.8172607421875 3.83648681640625 9.464385986328125 5.4228515625 7.44366455078125 7.443603515625 C 5.4228515625 9.46441650390625 3.836456298828125 11.8172607421875 2.72845458984375 14.4368896484375 C 1.58154296875 17.14852905273438 1 20.02960205078125 1 23 L 1 504 C 1 506.9703979492188 1.58154296875 509.8514709472656 2.72845458984375 512.5631103515625 C 3.836456298828125 515.1827392578125 5.4228515625 517.5355834960938 7.44366455078125 519.556396484375 C 9.464385986328125 521.5771484375 11.8172607421875 523.1635131835938 14.43692016601562 524.2715454101562 C 17.14852905273438 525.41845703125 20.02960205078125 526 23 526 L 390 526 C 392.9703979492188 526 395.8514709472656 525.41845703125 398.5630798339844 524.2715454101562 C 401.1827392578125 523.1635131835938 403.5356140136719 521.5771484375 405.5563354492188 519.556396484375 C 407.5771484375 517.5355834960938 409.1635437011719 515.1827392578125 410.2715454101562 512.5631103515625 C 411.41845703125 509.8514709472656 412 506.9703979492188 412 504 L 412 23 C 412 20.02960205078125 411.41845703125 17.14852905273438 410.2715454101562 14.4368896484375 C 409.1635437011719 11.8172607421875 407.5771484375 9.46441650390625 405.5563354492188 7.443603515625 C 403.5356140136719 5.4228515625 401.1827392578125 3.83648681640625 398.5630798339844 2.72845458984375 C 395.8514709472656 1.58154296875 392.9703979492188 1 390 1 L 23 1 M 23 0 L 390 0 C 402.7025451660156 0 413 10.29742431640625 413 23 L 413 504 C 413 516.7025756835938 402.7025451660156 527 390 527 L 23 527 C 10.29745483398438 527 0 516.7025756835938 0 504 L 0 23 C 0 10.29742431640625 10.29745483398438 0 23 0 Z" stroke="none" fill="#959595"/>
  </g>
  <g id="Path_52" data-name="Path 52" transform="translate(1294 389)" fill="#f76c6c">
    <path d="M 390 526.5 L 23 526.5 C 19.96233367919922 526.5 17.01573371887207 525.9052124023438 14.24213314056396 524.7320556640625 C 11.56293296813965 523.598876953125 9.156599998474121 521.9764404296875 7.090133190155029 519.909912109375 C 5.023600101470947 517.8433837890625 3.40120005607605 515.4371337890625 2.267933368682861 512.7578735351562 C 1.094799995422363 509.9842529296875 0.5 507.0377197265625 0.5 504 L 0.5 23 C 0.5 19.96233367919922 1.094799995422363 17.01573371887207 2.267933368682861 14.24213314056396 C 3.40120005607605 11.56293296813965 5.023600101470947 9.156599998474121 7.090133190155029 7.090133190155029 C 9.156599998474121 5.023600101470947 11.56293296813965 3.40120005607605 14.24213314056396 2.267933368682861 C 17.01573371887207 1.094799995422363 19.96233367919922 0.5 23 0.5 L 390 0.5 C 393.0376586914062 0.5 395.9842529296875 1.094799995422363 398.7578735351562 2.267933368682861 C 401.4370727539062 3.40120005607605 403.8434143066406 5.023600101470947 405.9098815917969 7.090133190155029 C 407.9764099121094 9.156599998474121 409.5987854003906 11.56293296813965 410.7320556640625 14.24213314056396 C 411.9052124023438 17.01573371887207 412.5 19.96233367919922 412.5 23 L 412.5 504 C 412.5 507.0377197265625 411.9052124023438 509.9842529296875 410.7320556640625 512.7578735351562 C 409.5987854003906 515.4371337890625 407.9764099121094 517.8433837890625 405.9098815917969 519.909912109375 C 403.8434143066406 521.9764404296875 401.4370727539062 523.598876953125 398.7578735351562 524.7320556640625 C 395.9842529296875 525.9052124023438 393.0376586914062 526.5 390 526.5 Z" stroke="none"/>
    <path d="M 23 1 C 20.02960205078125 1 17.14852905273438 1.58154296875 14.43692016601562 2.72845458984375 C 11.8172607421875 3.83648681640625 9.464385986328125 5.4228515625 7.44366455078125 7.443603515625 C 5.4228515625 9.46441650390625 3.836456298828125 11.8172607421875 2.72845458984375 14.4368896484375 C 1.58154296875 17.14852905273438 1 20.02960205078125 1 23 L 1 504 C 1 506.9703979492188 1.58154296875 509.8514709472656 2.72845458984375 512.5631103515625 C 3.836456298828125 515.1827392578125 5.4228515625 517.5355834960938 7.44366455078125 519.556396484375 C 9.464385986328125 521.5771484375 11.8172607421875 523.1635131835938 14.43692016601562 524.2715454101562 C 17.14852905273438 525.41845703125 20.02960205078125 526 23 526 L 390 526 C 392.9703979492188 526 395.8514709472656 525.41845703125 398.5630798339844 524.2715454101562 C 401.1827392578125 523.1635131835938 403.5356140136719 521.5771484375 405.5563354492188 519.556396484375 C 407.5771484375 517.5355834960938 409.1635437011719 515.1827392578125 410.2715454101562 512.5631103515625 C 411.41845703125 509.8514709472656 412 506.9703979492188 412 504 L 412 23 C 412 20.02960205078125 411.41845703125 17.14852905273438 410.2715454101562 14.4368896484375 C 409.1635437011719 11.8172607421875 407.5771484375 9.46441650390625 405.5563354492188 7.443603515625 C 403.5356140136719 5.4228515625 401.1827392578125 3.83648681640625 398.5630798339844 2.72845458984375 C 395.8514709472656 1.58154296875 392.9703979492188 1 390 1 L 23 1 M 23 0 L 390 0 C 402.7025451660156 0 413 10.29742431640625 413 23 L 413 504 C 413 516.7025756835938 402.7025451660156 527 390 527 L 23 527 C 10.29745483398438 527 0 516.7025756835938 0 504 L 0 23 C 0 10.29742431640625 10.29745483398438 0 23 0 Z" stroke="none" fill="#959595"/>
  </g>
  <path id="Path_51" data-name="Path 51" d="M75,0A75,75,0,1,1,0,75,75,75,0,0,1,75,0Z" transform="translate(897 736)" fill="#c2f0ca"/>
  <path id="Path_53" data-name="Path 53" d="M75,0A75,75,0,1,1,0,75,75,75,0,0,1,75,0Z" transform="translate(1426 736)" fill="#e5a0a0"/>
  <rect id="Rectangle_212" data-name="Rectangle 212" width="324" height="45" rx="22.5" transform="translate(806 477)" fill="#dcdcdc"/>
  <rect id="Rectangle_215" data-name="Rectangle 215" width="324" height="45" rx="22.5" transform="translate(1335 477)" fill="#dcdcdc"/>
  <rect id="Rectangle_213" data-name="Rectangle 213" width="324" height="45" rx="22.5" transform="translate(810 554)" fill="#dcdcdc"/>
  <rect id="Rectangle_216" data-name="Rectangle 216" width="324" height="45" rx="22.5" transform="translate(1339 554)" fill="#dcdcdc"/>
  <rect id="Rectangle_214" data-name="Rectangle 214" width="324" height="45" rx="22.5" transform="translate(810 631)" fill="#dcdcdc"/>
  <rect id="Rectangle_217" data-name="Rectangle 217" width="324" height="45" rx="22.5" transform="translate(1339 631)" fill="#dcdcdc"/>
  <path id="Path_60" data-name="Path 60" d="M0,0H1920V1080H0Z" fill="#374151"/>
  <rect id="Rectangle_219" data-name="Rectangle 219" width="319" height="45" rx="22.5" transform="translate(803 157)" fill="#717373"/>
  <rect id="Rectangle_220" data-name="Rectangle 220" width="807" height="45" rx="22.5" transform="translate(568 249)" fill="#dcdcdc"/>
  <path id="Path_54" data-name="Path 54" d="M23,0H390a23,23,0,0,1,23,23V504a23,23,0,0,1-23,23H23A23,23,0,0,1,0,504V23A23,23,0,0,1,23,0Z" transform="translate(236 389)" fill="#5cb9da"/>
  <path id="Path_55" data-name="Path 55" d="M75,0A75,75,0,1,1,0,75,75,75,0,0,1,75,0Z" transform="translate(368 736)" fill="#7fc9e3"/>
  <rect id="Rectangle_221" data-name="Rectangle 221" width="324" height="45" rx="22.5" transform="translate(277 477)" fill="#dcdcdc"/>
  <rect id="Rectangle_222" data-name="Rectangle 222" width="324" height="45" rx="22.5" transform="translate(281 554)" fill="#dcdcdc"/>
  <rect id="Rectangle_223" data-name="Rectangle 223" width="324" height="45" rx="22.5" transform="translate(281 631)" fill="#dcdcdc"/>
  <path id="Path_56" data-name="Path 56" d="M23,0H390a23,23,0,0,1,23,23V504a23,23,0,0,1-23,23H23A23,23,0,0,1,0,504V23A23,23,0,0,1,23,0Z" transform="translate(765 389)" fill="#9adba5"/>
  <path id="Path_57" data-name="Path 57" d="M23,0H390a23,23,0,0,1,23,23V504a23,23,0,0,1-23,23H23A23,23,0,0,1,0,504V23A23,23,0,0,1,23,0Z" transform="translate(1294 389)" fill="#fb9191"/>
  <path id="Path_58" data-name="Path 58" d="M75,0A75,75,0,1,1,0,75,75,75,0,0,1,75,0Z" transform="translate(897 736)" fill="#c2f0ca"/>
  <path id="Path_59" data-name="Path 59" d="M75,0A75,75,0,1,1,0,75,75,75,0,0,1,75,0Z" transform="translate(1426 736)" fill="#e5a0a0"/>
  <rect id="Rectangle_224" data-name="Rectangle 224" width="324" height="45" rx="22.5" transform="translate(806 477)" fill="#dcdcdc"/>
  <rect id="Rectangle_225" data-name="Rectangle 225" width="324" height="45" rx="22.5" transform="translate(1335 477)" fill="#dcdcdc"/>
  <rect id="Rectangle_226" data-name="Rectangle 226" width="324" height="45" rx="22.5" transform="translate(810 554)" fill="#dcdcdc"/>
  <rect id="Rectangle_227" data-name="Rectangle 227" width="324" height="45" rx="22.5" transform="translate(1339 554)" fill="#dcdcdc"/>
  <rect id="Rectangle_228" data-name="Rectangle 228" width="324" height="45" rx="22.5" transform="translate(810 631)" fill="#dcdcdc"/>
  <rect id="Rectangle_229" data-name="Rectangle 229" width="324" height="45" rx="22.5" transform="translate(1339 631)" fill="#dcdcdc"/>
</svg>
