<svg xmlns="http://www.w3.org/2000/svg" width="1920" height="1080" viewBox="0 0 1920 1080">
  <path id="Path_11" data-name="Path 11" d="M0,0H1920V1080H0Z" fill="#374151"/>
  <g id="Group_34" data-name="Group 34" transform="translate(2 344)">
    <rect id="Rectangle_1" data-name="Rectangle 1" width="235" height="37" rx="18" transform="translate(1035 414)" fill="#f8ffc9"/>
    <rect id="Rectangle_2" data-name="Rectangle 2" width="494" height="41" rx="18" transform="translate(1036 487)" fill="#c2f0ca"/>
    <rect id="Rectangle_7" data-name="Rectangle 7" width="222" height="38" rx="18" transform="translate(1652 413)" fill="#c2f0ca"/>
    <rect id="Rectangle_11" data-name="Rectangle 11" width="224" height="38" rx="18" transform="translate(49 415)" fill="#c2f0ca"/>
    <circle id="Ellipse_3" data-name="Ellipse 3" cx="24.5" cy="24.5" r="24.5" transform="translate(1698 487)" fill="#e5a0a0"/>
    <rect id="Rectangle_16" data-name="Rectangle 16" width="237" height="36" rx="18" transform="translate(42 493)" fill="#dcdcdc"/>
    <rect id="Rectangle_17" data-name="Rectangle 17" width="237" height="37" rx="18" transform="translate(42 563)" fill="#dcdcdc"/>
    <rect id="Rectangle_18" data-name="Rectangle 18" width="237" height="37" rx="18" transform="translate(42 632)" fill="#dcdcdc"/>
    <rect id="Rectangle_19" data-name="Rectangle 19" width="223" height="38" rx="18" transform="translate(378 415)" fill="#c2f0ca"/>
    <rect id="Rectangle_20" data-name="Rectangle 20" width="238" height="36" rx="18" transform="translate(370 493)" fill="#dcdcdc"/>
    <rect id="Rectangle_21" data-name="Rectangle 21" width="238" height="37" rx="18" transform="translate(370 563)" fill="#dcdcdc"/>
    <rect id="Rectangle_22" data-name="Rectangle 22" width="238" height="37" rx="18" transform="translate(370 632)" fill="#dcdcdc"/>
    <rect id="Rectangle_23" data-name="Rectangle 23" width="223" height="38" rx="18" transform="translate(707 415)" fill="#c2f0ca"/>
    <rect id="Rectangle_24" data-name="Rectangle 24" width="237" height="36" rx="18" transform="translate(698 493)" fill="#dcdcdc"/>
    <rect id="Rectangle_25" data-name="Rectangle 25" width="237" height="37" rx="18" transform="translate(698 563)" fill="#dcdcdc"/>
    <rect id="Rectangle_26" data-name="Rectangle 26" width="237" height="37" rx="18" transform="translate(698 632)" fill="#dcdcdc"/>
    <circle id="Ellipse_4" data-name="Ellipse 4" cx="22.5" cy="22.5" r="22.5" transform="translate(1631 487)" fill="#79bcd4"/>
    <ellipse id="Ellipse_5" data-name="Ellipse 5" cx="24" cy="22.5" rx="24" ry="22.5" transform="translate(1839 487)" fill="#c2f0ca"/>
    <ellipse id="Ellipse_6" data-name="Ellipse 6" cx="24" cy="23" rx="24" ry="23" transform="translate(1769 488)" fill="#f8ffc9"/>
    <rect id="Rectangle_28" data-name="Rectangle 28" width="139" height="63" transform="translate(1410 572)" fill="#f8ffc9"/>
    <rect id="Rectangle_29" data-name="Rectangle 29" width="374" height="61" transform="translate(1036 574)" fill="#dcdcdc"/>
  </g>
  <path id="Path_26" data-name="Path 26" d="M0,0H1916" transform="translate(2 702)" fill="none" stroke="#afafaf" stroke-width="1"/>
</svg>
