<svg xmlns="http://www.w3.org/2000/svg" width="1920" height="1080" viewBox="0 0 1920 1080">
  <path id="Path_73" data-name="Path 73" d="M0,0H1920V1080H0Z" fill="#fff"/>
  <rect id="Rectangle_309" data-name="Rectangle 309" width="623" height="62" transform="translate(278 168)" fill="#717373"/>
  <rect id="Rectangle_310" data-name="Rectangle 310" width="623" height="62" transform="translate(278 278)" fill="#dcdcdc"/>
  <rect id="Rectangle_312" data-name="Rectangle 312" width="623" height="62" transform="translate(278 454)" fill="#717373"/>
  <rect id="Rectangle_313" data-name="Rectangle 313" width="623" height="62" transform="translate(278 564)" fill="#dcdcdc"/>
  <rect id="Rectangle_314" data-name="Rectangle 314" width="623" height="62" transform="translate(1020 168)" fill="#717373"/>
  <rect id="Rectangle_315" data-name="Rectangle 315" width="623" height="62" transform="translate(1020 278)" fill="#dcdcdc"/>
  <rect id="Rectangle_316" data-name="Rectangle 316" width="623" height="62" transform="translate(1020 454)" fill="#717373"/>
  <rect id="Rectangle_317" data-name="Rectangle 317" width="623" height="62" transform="translate(1020 564)" fill="#dcdcdc"/>
  <rect id="Rectangle_318" data-name="Rectangle 318" width="623" height="62" transform="translate(1020 740)" fill="#717373"/>
  <rect id="Rectangle_319" data-name="Rectangle 319" width="623" height="62" transform="translate(1020 850)" fill="#dcdcdc"/>
  <rect id="Rectangle_320" data-name="Rectangle 320" width="623" height="62" transform="translate(278 740)" fill="#717373"/>
  <rect id="Rectangle_321" data-name="Rectangle 321" width="623" height="62" transform="translate(278 850)" fill="#dcdcdc"/>
  <path id="Path_75" data-name="Path 75" d="M0,0H1920V1080H0Z" fill="#fff"/>
  <rect id="Rectangle_322" data-name="Rectangle 322" width="623" height="62" transform="translate(278 168)" fill="#717373"/>
  <rect id="Rectangle_323" data-name="Rectangle 323" width="623" height="62" transform="translate(278 278)" fill="#dcdcdc"/>
  <rect id="Rectangle_324" data-name="Rectangle 324" width="623" height="62" transform="translate(278 454)" fill="#717373"/>
  <rect id="Rectangle_325" data-name="Rectangle 325" width="623" height="62" transform="translate(278 564)" fill="#dcdcdc"/>
  <rect id="Rectangle_326" data-name="Rectangle 326" width="623" height="62" transform="translate(1020 168)" fill="#717373"/>
  <rect id="Rectangle_327" data-name="Rectangle 327" width="623" height="62" transform="translate(1020 278)" fill="#dcdcdc"/>
  <rect id="Rectangle_328" data-name="Rectangle 328" width="623" height="62" transform="translate(1020 454)" fill="#717373"/>
  <rect id="Rectangle_329" data-name="Rectangle 329" width="623" height="62" transform="translate(1020 564)" fill="#dcdcdc"/>
  <rect id="Rectangle_330" data-name="Rectangle 330" width="623" height="62" transform="translate(1020 740)" fill="#717373"/>
  <rect id="Rectangle_331" data-name="Rectangle 331" width="623" height="62" transform="translate(1020 850)" fill="#dcdcdc"/>
  <rect id="Rectangle_332" data-name="Rectangle 332" width="623" height="62" transform="translate(278 740)" fill="#717373"/>
  <rect id="Rectangle_333" data-name="Rectangle 333" width="623" height="62" transform="translate(278 850)" fill="#dcdcdc"/>
</svg>
