<svg xmlns="http://www.w3.org/2000/svg" xmlns:xlink="http://www.w3.org/1999/xlink" width="1591.5" height="340" viewBox="0 0 1591.5 340">
  <defs>
    <filter id="extension_FILL1_wght400_GRAD0_opsz48" x="0" y="20.54" width="133.732" height="154.219" filterUnits="userSpaceOnUse">
      <feOffset dy="3" input="SourceAlpha"/>
      <feGaussianBlur stdDeviation="3" result="blur"/>
      <feFlood flood-opacity="0.161"/>
      <feComposite operator="in" in2="blur"/>
      <feComposite in="SourceGraphic"/>
    </filter>
    <filter id="extension_FILL1_wght400_GRAD0_opsz48-2" x="0" y="150.418" width="133.732" height="154.219" filterUnits="userSpaceOnUse">
      <feOffset dy="3" input="SourceAlpha"/>
      <feGaussianBlur stdDeviation="3" result="blur-2"/>
      <feFlood flood-opacity="0.161"/>
      <feComposite operator="in" in2="blur-2"/>
      <feComposite in="SourceGraphic"/>
    </filter>
    <filter id="extension_FILL1_wght400_GRAD0_opsz48-3" x="103.434" y="38.676" width="156.58" height="156.904" filterUnits="userSpaceOnUse">
      <feOffset dy="3" input="SourceAlpha"/>
      <feGaussianBlur stdDeviation="3" result="blur-3"/>
      <feFlood flood-opacity="0.161"/>
      <feComposite operator="in" in2="blur-3"/>
      <feComposite in="SourceGraphic"/>
    </filter>
    <filter id="extension_FILL1_wght400_GRAD0_opsz48-4" x="107.337" y="168.552" width="156.217" height="136.093" filterUnits="userSpaceOnUse">
      <feOffset dy="3" input="SourceAlpha"/>
      <feGaussianBlur stdDeviation="3" result="blur-4"/>
      <feFlood flood-opacity="0.161"/>
      <feComposite operator="in" in2="blur-4"/>
      <feComposite in="SourceGraphic"/>
    </filter>
  </defs>
  <g id="Group_1" data-name="Group 1" transform="translate(-190.5 -194)">
    <g transform="matrix(1, 0, 0, 1, 190.5, 194)" filter="url(#extension_FILL1_wght400_GRAD0_opsz48)">
      <path id="extension_FILL1_wght400_GRAD0_opsz48-5" data-name="extension_FILL1_wght400_GRAD0_opsz48" d="M158.761,254.9H129.939a9.414,9.414,0,0,1-6.957-3.064A10.193,10.193,0,0,1,120,244.466V215.313a21.338,21.338,0,0,0,12.506-5.715,16.429,16.429,0,0,0,0-24.019A21.336,21.336,0,0,0,120,179.865V150.711a9.631,9.631,0,0,1,2.981-6.874,9.413,9.413,0,0,1,6.957-3.064h31.08c1.215-4.417.869-12.849,3.85-15.665s7.79-5.425,12.207-5.425c4.307,0,9.746,1.385,13.169,4.2s3.577,12.472,4.793,16.889H224.19a10.512,10.512,0,0,1,9.939,9.938v27.557c4.417,1.215-23.107-1.468-28.089,2.975s-5.6,12.039-5.6,16.346c0,4.416,5.443,13.531,11.231,15.328s26.876,1.678,22.458,2.893v29.153a9.411,9.411,0,0,1-3.064,6.957,9.628,9.628,0,0,1-6.874,2.982H195.367c-.552-5.3-1.7-19.56-5.342-22.818s-8.2-6.65-12.951-6.65c-4.55-2.45-12.392,2.168-15.926,5.426S159.313,249.6,158.761,254.9Z" transform="translate(-110.5 -92.64)" fill="#dcec72" stroke="#000" stroke-width="1"/>
    </g>
    <g transform="matrix(1, 0, 0, 1, 190.5, 194)" filter="url(#extension_FILL1_wght400_GRAD0_opsz48-2)">
      <path id="extension_FILL1_wght400_GRAD0_opsz48-6" data-name="extension_FILL1_wght400_GRAD0_opsz48" d="M158.761,254.9H129.939a9.414,9.414,0,0,1-6.957-3.064A10.193,10.193,0,0,1,120,244.466V215.313a21.338,21.338,0,0,0,12.506-5.715,16.429,16.429,0,0,0,0-24.019A21.336,21.336,0,0,0,120,179.865V150.711a9.631,9.631,0,0,1,2.981-6.874,9.413,9.413,0,0,1,6.957-3.064h31.08c1.215-4.417.869-12.849,3.85-15.665s7.79-5.425,12.207-5.425c4.307,0,9.746,1.385,13.169,4.2s3.577,12.472,4.793,16.889H224.19a10.512,10.512,0,0,1,9.939,9.938v27.557c4.417,1.215-23.107-1.468-28.089,2.975s-5.6,12.039-5.6,16.346c0,4.416,5.443,13.531,11.231,15.328s26.876,1.678,22.458,2.893v29.153a9.411,9.411,0,0,1-3.064,6.957,9.628,9.628,0,0,1-6.874,2.982H195.367c-.552-5.3-1.7-19.56-5.342-22.818s-8.2-6.65-12.951-6.65c-4.55-2.45-12.392,2.168-15.926,5.426S159.313,249.6,158.761,254.9Z" transform="translate(-110.5 37.24)" fill="#9adba5" stroke="#000" stroke-width="1"/>
    </g>
    <g transform="matrix(1, 0, 0, 1, 190.5, 194)" filter="url(#extension_FILL1_wght400_GRAD0_opsz48-3)">
      <path id="extension_FILL1_wght400_GRAD0_opsz48-7" data-name="extension_FILL1_wght400_GRAD0_opsz48" d="M59.555,135.218H30.733a9.413,9.413,0,0,1-6.957-3.064,10.191,10.191,0,0,1-2.982-7.371V95.629c4.859-.552-8.463-1.949-13.8-6.154S.537,81.233.085,76.14.744,63.192,9.24,59.979s16.413.754,11.554.2V31.028a9.628,9.628,0,0,1,2.982-6.874,9.412,9.412,0,0,1,6.957-3.064h31.08c1.215-4.417.869-12.848,3.85-15.664S73.453,0,77.87,0c4.307,0,9.746,1.384,13.17,4.2s3.577,12.472,4.792,16.889h29.153a9.505,9.505,0,0,1,6.874,3.064,9.505,9.505,0,0,1,3.064,6.874V58.584c4.417,1.215-23.108-1.467-28.089,2.975s-5.6,12.039-5.6,16.346c0,4.417,5.442,13.531,11.231,15.328s26.876,1.678,22.459,2.893v29.153a9.413,9.413,0,0,1-3.065,6.957,9.628,9.628,0,0,1-6.874,2.982H96.163c-.552-5.3-1.7-19.56-5.342-22.818s-8.2-6.65-12.951-6.65c-4.55-2.45-12.392,2.168-15.926,5.425S60.107,129.917,59.555,135.218Z" transform="translate(115.31 183.05) rotate(-91)" fill="#f76c6c" stroke="#000" stroke-width="1"/>
    </g>
    <g transform="matrix(1, 0, 0, 1, 190.5, 194)" filter="url(#extension_FILL1_wght400_GRAD0_opsz48-4)">
      <path id="extension_FILL1_wght400_GRAD0_opsz48-8" data-name="extension_FILL1_wght400_GRAD0_opsz48" d="M38.761,135.218H9.939a9.413,9.413,0,0,1-6.957-3.064A10.191,10.191,0,0,1,0,124.782V95.629a21.336,21.336,0,0,0,12.506-5.715,16.429,16.429,0,0,0,0-24.018A21.337,21.337,0,0,0,0,60.181V31.028a9.628,9.628,0,0,1,2.982-6.874,9.413,9.413,0,0,1,6.957-3.064h31.08c1.215-4.417.869-12.848,3.85-15.664S52.658,0,57.076,0c4.307,0,9.746,1.384,13.17,4.2s3.577,12.472,4.792,16.889h29.154a9.505,9.505,0,0,1,6.874,3.064,9.505,9.505,0,0,1,3.064,6.874V58.584c4.417,1.215-23.108-1.467-28.089,2.975s-5.6,12.039-5.6,16.346c0,4.417,5.442,13.531,11.231,15.328s26.876,1.678,22.459,2.893v29.153a9.413,9.413,0,0,1-3.064,6.957,9.628,9.628,0,0,1-6.874,2.982H75.368c-.552-5.3-1.7-19.56-5.342-22.818s-8.2-6.65-12.951-6.65c-4.55-2.45-12.392,2.168-15.926,5.425S39.313,129.917,38.761,135.218Z" transform="translate(118.85 292.14) rotate(-91)" fill="#5cb9da" stroke="#000" stroke-width="1"/>
    </g>
    <text id="Effsemble" transform="translate(565 449)" font-size="243" font-family="Poppins-SemiBold, Poppins" font-weight="600"><tspan x="0" y="0">Effsemble</tspan></text>
  </g>
</svg>
