<svg xmlns="http://www.w3.org/2000/svg" width="1920" height="1080" viewBox="0 0 1920 1080">
  <rect id="Rectangle_352" data-name="Rectangle 352" width="1920" height="1080" fill="#fff"/>
  <rect id="Rectangle_396" data-name="Rectangle 396" width="792" height="169" transform="translate(564 202)" fill="#5cb9da"/>
  <path id="Polygon_6" data-name="Polygon 6" d="M22.5,0,45,38H0Z" transform="translate(1281 340) rotate(180)" fill="#f76c6c"/>
  <rect id="Rectangle_397" data-name="Rectangle 397" width="517" height="42" transform="translate(649 274)" fill="#9adba5"/>
  <g id="Rectangle_396-2" data-name="Rectangle 396" transform="translate(564 371)" fill="#dcdcdc" stroke="#707070" stroke-width="1">
    <rect width="792" height="169" stroke="none"/>
    <rect x="0.5" y="0.5" width="791" height="168" fill="none"/>
  </g>
  <path id="Polygon_6-2" data-name="Polygon 6" d="M22.5,0,45,38H0Z" transform="translate(1236 251)" fill="#f76c6c"/>
  <rect id="Rectangle_397-2" data-name="Rectangle 397" width="645" height="52" transform="translate(636 430)" fill="#eee6e6"/>
  <g id="Rectangle_398" data-name="Rectangle 398" transform="translate(564 540)" fill="#dcdcdc" stroke="#707070" stroke-width="1">
    <rect width="792" height="169" stroke="none"/>
    <rect x="0.5" y="0.5" width="791" height="168" fill="none"/>
  </g>
  <rect id="Rectangle_399" data-name="Rectangle 399" width="645" height="52" transform="translate(636 599)" fill="#eee6e6"/>
  <g id="Rectangle_400" data-name="Rectangle 400" transform="translate(564 709)" fill="#dcdcdc" stroke="#707070" stroke-width="1">
    <rect width="792" height="169" stroke="none"/>
    <rect x="0.5" y="0.5" width="791" height="168" fill="none"/>
  </g>
  <rect id="Rectangle_401" data-name="Rectangle 401" width="645" height="52" transform="translate(636 776)" fill="#eee6e6"/>
</svg>
