<svg xmlns="http://www.w3.org/2000/svg" xmlns:xlink="http://www.w3.org/1999/xlink" width="1920" height="1080" viewBox="0 0 1920 1080">
  <defs>
    <filter id="Rectangle_158" x="-8" y="245" width="1937" height="415" filterUnits="userSpaceOnUse">
      <feOffset dy="3" input="SourceAlpha"/>
      <feGaussianBlur stdDeviation="3" result="blur"/>
      <feFlood flood-opacity="0.161"/>
      <feComposite operator="in" in2="blur"/>
      <feComposite in="SourceGraphic"/>
    </filter>
    <clipPath id="clip-Statistic_2">
      <rect width="1920" height="1080"/>
    </clipPath>
  </defs>
  <g id="Statistic_2" data-name="Statistic – 2" clip-path="url(#clip-Statistic_2)">
    <rect width="1920" height="1080" fill="#fff"/>
    <rect id="Rectangle_63" data-name="Rectangle 63" width="1920" height="1080" transform="translate(1)" fill="#fff"/>
    <g transform="matrix(1, 0, 0, 1, 0, 0)" filter="url(#Rectangle_158)">
      <rect id="Rectangle_158-2" data-name="Rectangle 158" width="1919" height="397" transform="translate(1 251)" fill="#fff"/>
    </g>
    <g id="Group_38" data-name="Group 38" transform="translate(-1521 -11)">
      <circle id="Ellipse_50" data-name="Ellipse 50" cx="59" cy="59" r="59" transform="translate(1610 460)" fill="#e5a0a0"/>
      <rect id="Rectangle_157" data-name="Rectangle 157" width="163" height="77" rx="34" transform="translate(1757 480)" fill="#79bcd4"/>
    </g>
    <g id="Group_39" data-name="Group 39" transform="translate(-1169 -11)">
      <circle id="Ellipse_50-2" data-name="Ellipse 50" cx="59" cy="59" r="59" transform="translate(1610 460)" fill="#c2f0ca"/>
      <rect id="Rectangle_157-2" data-name="Rectangle 157" width="163" height="77" rx="34" transform="translate(1757 480)" fill="#79bcd4"/>
    </g>
    <g id="Group_40" data-name="Group 40" transform="translate(-816 -11)">
      <circle id="Ellipse_50-3" data-name="Ellipse 50" cx="59" cy="59" r="59" transform="translate(1610 460)" fill="#f8ffc9"/>
      <rect id="Rectangle_157-3" data-name="Rectangle 157" width="163" height="77" rx="34" transform="translate(1757 480)" fill="#79bcd4"/>
    </g>
    <g id="Group_41" data-name="Group 41" transform="translate(-464 -11)">
      <circle id="Ellipse_50-4" data-name="Ellipse 50" cx="59" cy="59" r="59" transform="translate(1610 460)" fill="#e5a0a0"/>
      <rect id="Rectangle_157-4" data-name="Rectangle 157" width="163" height="77" rx="34" transform="translate(1757 480)" fill="#79bcd4"/>
    </g>
    <g id="Group_42" data-name="Group 42" transform="translate(-112 -11)">
      <circle id="Ellipse_50-5" data-name="Ellipse 50" cx="59" cy="59" r="59" transform="translate(1610 460)" fill="#c2f0ca"/>
      <rect id="Rectangle_157-5" data-name="Rectangle 157" width="163" height="77" rx="34" transform="translate(1757 480)" fill="#79bcd4"/>
    </g>
    <path id="Path_40" data-name="Path 40" d="M21.5,0h296C329.374,0,339,17.084,339,38.159s-9.626,38.159-21.5,38.159H21.5C9.626,76.318,0,59.234,0,38.159S9.626,0,21.5,0Z" transform="translate(751 299.682)" fill="#dcdcdc"/>
  </g>
</svg>
