<svg xmlns="http://www.w3.org/2000/svg" width="1920" height="1080" viewBox="0 0 1920 1080">
  <rect id="Rectangle_352" data-name="Rectangle 352" width="1920" height="1080" fill="#fff"/>
  <rect id="Rectangle_393" data-name="Rectangle 393" width="1171" height="235" transform="translate(377 110)" fill="#5cb9da"/>
  <path id="info_FILL1_wght400_GRAD0_opsz48" d="M140.369,273.108h9.711V234.265h-9.711Zm4.367-50.82a5.258,5.258,0,0,0,3.806-1.489,4.931,4.931,0,0,0,1.538-3.69,5.411,5.411,0,0,0-1.535-3.921,5.366,5.366,0,0,0-7.61,0,5.405,5.405,0,0,0-1.538,3.921,4.935,4.935,0,0,0,1.535,3.69A5.248,5.248,0,0,0,144.736,222.288Zm.046,83.189a62.664,62.664,0,0,1-25.167-5.1A65.4,65.4,0,0,1,85.1,265.851a64.8,64.8,0,0,1,0-50.386,64.777,64.777,0,0,1,13.919-20.529,66.447,66.447,0,0,1,20.61-13.838,64.8,64.8,0,0,1,50.386,0,64.706,64.706,0,0,1,34.367,34.392,64.761,64.761,0,0,1,0,50.372,66.119,66.119,0,0,1-13.838,20.568,65.356,65.356,0,0,1-20.555,13.919A62.618,62.618,0,0,1,144.782,305.478Z" transform="translate(340 -13.239)" fill="#fff"/>
  <rect id="Rectangle_394" data-name="Rectangle 394" width="1171" height="235" transform="translate(375 403)" fill="#f76c6c"/>
  <rect id="Rectangle_395" data-name="Rectangle 395" width="1171" height="235" transform="translate(375 696)" fill="#c2f0ca"/>
  <path id="warning_FILL1_wght400_GRAD0_opsz48" d="M40,283l61.947-107,61.947,107Zm62.535-16.472a4.029,4.029,0,0,0,3-1.221,4.155,4.155,0,0,0,1.2-3.027,4.029,4.029,0,0,0-1.221-3,4.155,4.155,0,0,0-3.027-1.2,4.029,4.029,0,0,0-3,1.221,4.155,4.155,0,0,0-1.2,3.027,4.029,4.029,0,0,0,1.221,3A4.155,4.155,0,0,0,102.535,266.528ZM98.287,250.9h8.447V219.363H98.287Z" transform="translate(385.582 291)" fill="#fff"/>
  <path id="check_circle_FILL1_wght400_GRAD0_opsz48_3_" data-name="check_circle_FILL1_wght400_GRAD0_opsz48 (3)" d="M141.807,281.489,193.1,230.194l-8.338-8.156-42.957,42.957-21.75-21.75L111.9,251.4ZM152.5,321a70.152,70.152,0,0,1-28.094-5.709,73.046,73.046,0,0,1-38.7-38.7,72.421,72.421,0,0,1,0-56.369A72.456,72.456,0,0,1,101.3,197.207a74.32,74.32,0,0,1,23.11-15.5,72.421,72.421,0,0,1,56.37,0,72.388,72.388,0,0,1,38.516,38.516,72.421,72.421,0,0,1,0,56.369,74.32,74.32,0,0,1-15.5,23.11,72.456,72.456,0,0,1-23.019,15.588A70.6,70.6,0,0,1,152.5,321Z" transform="translate(345.582 561.089)" fill="#fff"/>
</svg>
