<svg xmlns="http://www.w3.org/2000/svg" xmlns:xlink="http://www.w3.org/1999/xlink" width="1829" height="1010" viewBox="0 0 1829 1010">
  <defs>
    <filter id="Rectangle_149" x="277" y="89" width="674" height="268" filterUnits="userSpaceOnUse">
      <feOffset dx="5" dy="5" input="SourceAlpha"/>
      <feGaussianBlur stdDeviation="5" result="blur"/>
      <feFlood flood-color="#554b4b" flood-opacity="0.161"/>
      <feComposite operator="in" in2="blur"/>
      <feComposite in="SourceGraphic"/>
    </filter>
    <filter id="Rectangle_148" x="206" y="353" width="943" height="206" filterUnits="userSpaceOnUse">
      <feOffset dx="5" dy="5" input="SourceAlpha"/>
      <feGaussianBlur stdDeviation="5" result="blur-2"/>
      <feFlood flood-color="#554b4b" flood-opacity="0.161"/>
      <feComposite operator="in" in2="blur-2"/>
      <feComposite in="SourceGraphic"/>
    </filter>
    <filter id="Rectangle_138" x="684" y="741" width="407" height="269" filterUnits="userSpaceOnUse">
      <feOffset dy="3" input="SourceAlpha"/>
      <feGaussianBlur stdDeviation="3" result="blur-3"/>
      <feFlood flood-opacity="0.161"/>
      <feComposite operator="in" in2="blur-3"/>
      <feComposite in="SourceGraphic"/>
    </filter>
    <filter id="Rectangle_32" x="1175" y="174" width="196" height="262" filterUnits="userSpaceOnUse">
      <feOffset dy="3" input="SourceAlpha"/>
      <feGaussianBlur stdDeviation="3" result="blur-4"/>
      <feFlood flood-color="#181515" flood-opacity="0.161"/>
      <feComposite operator="in" in2="blur-4"/>
      <feComposite in="SourceGraphic"/>
    </filter>
    <filter id="Rectangle_33" x="1162" y="174" width="216" height="267" filterUnits="userSpaceOnUse">
      <feOffset dy="3" input="SourceAlpha"/>
      <feGaussianBlur stdDeviation="3" result="blur-5"/>
      <feFlood flood-color="#181515" flood-opacity="0.161"/>
      <feComposite operator="in" in2="blur-5"/>
      <feComposite in="SourceGraphic"/>
    </filter>
    <filter id="Rectangle_32-2" x="1399" y="174" width="197" height="262" filterUnits="userSpaceOnUse">
      <feOffset dy="3" input="SourceAlpha"/>
      <feGaussianBlur stdDeviation="3" result="blur-6"/>
      <feFlood flood-color="#181515" flood-opacity="0.161"/>
      <feComposite operator="in" in2="blur-6"/>
      <feComposite in="SourceGraphic"/>
    </filter>
    <filter id="Rectangle_33-2" x="1387" y="174" width="217" height="267" filterUnits="userSpaceOnUse">
      <feOffset dy="3" input="SourceAlpha"/>
      <feGaussianBlur stdDeviation="3" result="blur-7"/>
      <feFlood flood-color="#181515" flood-opacity="0.161"/>
      <feComposite operator="in" in2="blur-7"/>
      <feComposite in="SourceGraphic"/>
    </filter>
    <filter id="Rectangle_32-3" x="1625" y="174" width="197" height="262" filterUnits="userSpaceOnUse">
      <feOffset dy="3" input="SourceAlpha"/>
      <feGaussianBlur stdDeviation="3" result="blur-8"/>
      <feFlood flood-color="#181515" flood-opacity="0.161"/>
      <feComposite operator="in" in2="blur-8"/>
      <feComposite in="SourceGraphic"/>
    </filter>
    <filter id="Rectangle_33-3" x="1613" y="174" width="216" height="267" filterUnits="userSpaceOnUse">
      <feOffset dy="3" input="SourceAlpha"/>
      <feGaussianBlur stdDeviation="3" result="blur-9"/>
      <feFlood flood-color="#181515" flood-opacity="0.161"/>
      <feComposite operator="in" in2="blur-9"/>
      <feComposite in="SourceGraphic"/>
    </filter>
    <filter id="Rectangle_33-4" x="1162" y="494" width="182" height="224" filterUnits="userSpaceOnUse">
      <feOffset dy="3" input="SourceAlpha"/>
      <feGaussianBlur stdDeviation="3" result="blur-10"/>
      <feFlood flood-color="#181515" flood-opacity="0.161"/>
      <feComposite operator="in" in2="blur-10"/>
      <feComposite in="SourceGraphic"/>
    </filter>
    <filter id="Rectangle_33-5" x="1405" y="494" width="182" height="224" filterUnits="userSpaceOnUse">
      <feOffset dy="3" input="SourceAlpha"/>
      <feGaussianBlur stdDeviation="3" result="blur-11"/>
      <feFlood flood-color="#181515" flood-opacity="0.161"/>
      <feComposite operator="in" in2="blur-11"/>
      <feComposite in="SourceGraphic"/>
    </filter>
    <filter id="Rectangle_33-6" x="1647" y="494" width="182" height="224" filterUnits="userSpaceOnUse">
      <feOffset dy="3" input="SourceAlpha"/>
      <feGaussianBlur stdDeviation="3" result="blur-12"/>
      <feFlood flood-color="#181515" flood-opacity="0.161"/>
      <feComposite operator="in" in2="blur-12"/>
      <feComposite in="SourceGraphic"/>
    </filter>
    <filter id="Rectangle_33-7" x="1162" y="736" width="182" height="222" filterUnits="userSpaceOnUse">
      <feOffset dy="3" input="SourceAlpha"/>
      <feGaussianBlur stdDeviation="3" result="blur-13"/>
      <feFlood flood-color="#181515" flood-opacity="0.161"/>
      <feComposite operator="in" in2="blur-13"/>
      <feComposite in="SourceGraphic"/>
    </filter>
    <filter id="Rectangle_33-8" x="1405" y="736" width="182" height="222" filterUnits="userSpaceOnUse">
      <feOffset dy="3" input="SourceAlpha"/>
      <feGaussianBlur stdDeviation="3" result="blur-14"/>
      <feFlood flood-color="#181515" flood-opacity="0.161"/>
      <feComposite operator="in" in2="blur-14"/>
      <feComposite in="SourceGraphic"/>
    </filter>
    <filter id="Rectangle_33-9" x="1647" y="736" width="182" height="222" filterUnits="userSpaceOnUse">
      <feOffset dy="3" input="SourceAlpha"/>
      <feGaussianBlur stdDeviation="3" result="blur-15"/>
      <feFlood flood-color="#181515" flood-opacity="0.161"/>
      <feComposite operator="in" in2="blur-15"/>
      <feComposite in="SourceGraphic"/>
    </filter>
    <filter id="Rectangle_88" x="0" y="62" width="191" height="450" filterUnits="userSpaceOnUse">
      <feOffset dy="3" input="SourceAlpha"/>
      <feGaussianBlur stdDeviation="3" result="blur-16"/>
      <feFlood flood-color="#272525" flood-opacity="0.161"/>
      <feComposite operator="in" in2="blur-16"/>
      <feComposite in="SourceGraphic"/>
    </filter>
    <filter id="Rectangle_97" x="15" y="595" width="1121" height="112" filterUnits="userSpaceOnUse">
      <feOffset dx="5" dy="5" input="SourceAlpha"/>
      <feGaussianBlur stdDeviation="5" result="blur-17"/>
      <feFlood flood-color="#554b4b" flood-opacity="0.161"/>
      <feComposite operator="in" in2="blur-17"/>
      <feComposite in="SourceGraphic"/>
    </filter>
    <filter id="Rectangle_102" x="625" y="0" width="780" height="80" filterUnits="userSpaceOnUse">
      <feOffset dy="3" input="SourceAlpha"/>
      <feGaussianBlur stdDeviation="3" result="blur-18"/>
      <feFlood flood-opacity="0.161"/>
      <feComposite operator="in" in2="blur-18"/>
      <feComposite in="SourceGraphic"/>
    </filter>
    <filter id="Rectangle_119" x="175" y="764" width="388" height="246" filterUnits="userSpaceOnUse">
      <feOffset dx="2" dy="3" input="SourceAlpha"/>
      <feGaussianBlur stdDeviation="3" result="blur-19"/>
      <feFlood flood-opacity="0.161"/>
      <feComposite operator="in" in2="blur-19"/>
      <feComposite in="SourceGraphic"/>
    </filter>
  </defs>
  <g transform="matrix(1, 0, 0, 1, 0, 0)" filter="url(#Rectangle_149)">
    <rect id="Rectangle_149-2" data-name="Rectangle 149" width="644" height="238" transform="translate(287 99)" fill="#fff"/>
  </g>
  <g transform="matrix(1, 0, 0, 1, 0, 0)" filter="url(#Rectangle_148)">
    <rect id="Rectangle_148-2" data-name="Rectangle 148" width="913" height="176" transform="translate(216 363)" fill="#fff"/>
  </g>
  <g transform="matrix(1, 0, 0, 1, 0, 0)" filter="url(#Rectangle_138)">
    <rect id="Rectangle_138-2" data-name="Rectangle 138" width="389" height="251" transform="translate(693 747)" fill="#fff"/>
  </g>
  <g id="Group_2" data-name="Group 2" transform="translate(337.5 114.726)">
    <rect id="Rectangle_1" data-name="Rectangle 1" width="228.315" height="14.658" rx="7.329" transform="translate(163.907 -0.217)" fill="#f8ffc9"/>
    <rect id="Rectangle_2" data-name="Rectangle 2" width="281.174" height="16.435" rx="8.218" transform="translate(139.476 21.105)" fill="#c2f0ca"/>
    <g id="Component_2_2" data-name="Component 2 – 2" transform="translate(196.311 105.057)">
      <rect id="Rectangle_3" data-name="Rectangle 3" width="89.283" height="15.103" rx="7.551" transform="translate(40.444)" fill="#c2f0ca"/>
      <rect id="Rectangle_4" data-name="Rectangle 4" width="163.463" height="14.658" rx="7.329" transform="translate(0.022 23.098)" fill="#dcdcdc"/>
      <path id="Path_2" data-name="Path 2" d="M7.58,0H155.929a7.58,7.58,0,1,1,0,15.16H7.58A7.58,7.58,0,0,1,7.58,0Z" transform="translate(0 45.808)" fill="#dcdcdc"/>
      <path id="Path_3" data-name="Path 3" d="M7.58,0H155.929a7.58,7.58,0,1,1,0,15.16H7.58A7.58,7.58,0,0,1,7.58,0Z" transform="translate(0 68.548)" fill="#dcdcdc"/>
    </g>
    <g id="Component_1_2" data-name="Component 1 – 2" transform="translate(390.889 105.057)">
      <rect id="Rectangle_7" data-name="Rectangle 7" width="89.283" height="15.103" rx="7.551" transform="translate(40.866)" fill="#c2f0ca"/>
      <rect id="Rectangle_8" data-name="Rectangle 8" width="163.907" height="14.658" rx="7.329" transform="translate(0 23.098)" fill="#dcdcdc"/>
      <path id="Path_4" data-name="Path 4" d="M7.58,0H155.929a7.58,7.58,0,1,1,0,15.16H7.58A7.58,7.58,0,0,1,7.58,0Z" transform="translate(0.193 45.808)" fill="#dcdcdc"/>
      <path id="Path_5" data-name="Path 5" d="M7.58,0H155.929a7.58,7.58,0,1,1,0,15.16H7.58A7.58,7.58,0,0,1,7.58,0Z" transform="translate(0.193 68.548)" fill="#dcdcdc"/>
    </g>
    <g id="Component_3_2" data-name="Component 3 – 2" transform="translate(0 105.057)">
      <rect id="Rectangle_11" data-name="Rectangle 11" width="89.283" height="15.103" rx="7.551" transform="translate(40.866)" fill="#c2f0ca"/>
      <rect id="Rectangle_12" data-name="Rectangle 12" width="163.907" height="14.658" rx="7.329" transform="translate(0 23.098)" fill="#dcdcdc"/>
      <rect id="Rectangle_13" data-name="Rectangle 13" width="163.907" height="14.658" rx="7.329" transform="translate(0 46.196)" fill="#dcdcdc"/>
      <path id="Path_1" data-name="Path 1" d="M7.58,0H155.929a7.58,7.58,0,1,1,0,15.16H7.58A7.58,7.58,0,0,1,7.58,0Z" transform="translate(0.187 68.548)" fill="#dcdcdc"/>
    </g>
    <ellipse id="Ellipse_1" data-name="Ellipse 1" cx="15.547" cy="14.88" rx="15.547" ry="14.88" transform="translate(67.961 67.301)" fill="#f8ffc9"/>
    <circle id="Ellipse_2" data-name="Ellipse 2" cx="14.88" cy="14.88" r="14.88" transform="translate(262.518 67.301)" fill="#79bcd4"/>
    <circle id="Ellipse_3" data-name="Ellipse 3" cx="14.88" cy="14.88" r="14.88" transform="translate(461.516 67.301)" fill="#e5a0a0"/>
  </g>
  <g id="Group_22" data-name="Group 22" transform="translate(-35 -94)">
    <rect id="Rectangle_69" data-name="Rectangle 69" width="110" height="17" rx="8.5" transform="translate(757 497)" fill="#f8ffc9"/>
    <rect id="Rectangle_70" data-name="Rectangle 70" width="233" height="19" rx="9.5" transform="translate(757 531)" fill="#c2f0ca"/>
    <rect id="Rectangle_71" data-name="Rectangle 71" width="105" height="18" rx="9" transform="translate(1046 496)" fill="#c2f0ca"/>
    <rect id="Rectangle_72" data-name="Rectangle 72" width="105" height="18" rx="9" transform="translate(294 497)" fill="#c2f0ca"/>
    <circle id="Ellipse_25" data-name="Ellipse 25" cx="11.5" cy="11.5" r="11.5" transform="translate(1068 531)" fill="#e5a0a0"/>
    <rect id="Rectangle_73" data-name="Rectangle 73" width="112" height="17" rx="8.5" transform="translate(290 534)" fill="#dcdcdc"/>
    <rect id="Rectangle_74" data-name="Rectangle 74" width="112" height="18" rx="9" transform="translate(290 566)" fill="#dcdcdc"/>
    <rect id="Rectangle_75" data-name="Rectangle 75" width="112" height="18" rx="9" transform="translate(290 599)" fill="#dcdcdc"/>
    <rect id="Rectangle_76" data-name="Rectangle 76" width="105" height="18" rx="9" transform="translate(448 497)" fill="#c2f0ca"/>
    <rect id="Rectangle_77" data-name="Rectangle 77" width="111" height="17" rx="8.5" transform="translate(445 534)" fill="#dcdcdc"/>
    <rect id="Rectangle_78" data-name="Rectangle 78" width="111" height="18" rx="9" transform="translate(445 566)" fill="#dcdcdc"/>
    <rect id="Rectangle_79" data-name="Rectangle 79" width="111" height="18" rx="9" transform="translate(445 599)" fill="#dcdcdc"/>
    <rect id="Rectangle_80" data-name="Rectangle 80" width="105" height="18" rx="9" transform="translate(603 497)" fill="#c2f0ca"/>
    <rect id="Rectangle_81" data-name="Rectangle 81" width="111" height="17" rx="8.5" transform="translate(599 534)" fill="#dcdcdc"/>
    <rect id="Rectangle_82" data-name="Rectangle 82" width="111" height="18" rx="9" transform="translate(599 566)" fill="#dcdcdc"/>
    <rect id="Rectangle_83" data-name="Rectangle 83" width="111" height="18" rx="9" transform="translate(599 599)" fill="#dcdcdc"/>
    <circle id="Ellipse_26" data-name="Ellipse 26" cx="10.5" cy="10.5" r="10.5" transform="translate(1037 531)" fill="#79bcd4"/>
    <ellipse id="Ellipse_27" data-name="Ellipse 27" cx="11" cy="10.5" rx="11" ry="10.5" transform="translate(1102 532)" fill="#f8ffc9"/>
    <rect id="Rectangle_84" data-name="Rectangle 84" width="65" height="29" transform="translate(933 571)" fill="#f8ffc9"/>
    <rect id="Rectangle_85" data-name="Rectangle 85" width="176" height="28" transform="translate(757 572)" fill="#dcdcdc"/>
  </g>
  <g id="Group_26" data-name="Group 26" transform="translate(-164 -322)">
    <g id="Group_23" data-name="Group 23" transform="translate(1335 501.9)">
      <g transform="matrix(1, 0, 0, 1, -1171, -179.9)" filter="url(#Rectangle_32)">
        <rect id="Rectangle_32-4" data-name="Rectangle 32" width="178" height="244" transform="translate(1184 180)" fill="#fff"/>
      </g>
      <rect id="Rectangle_1-2" data-name="Rectangle 1" width="123" height="19" rx="9.5" transform="translate(40 204.1)" fill="#79bcd4"/>
      <g id="Group_4" data-name="Group 4" transform="translate(31.881 35.297)">
        <rect id="Rectangle_23" data-name="Rectangle 23" width="129" height="22" rx="11" transform="translate(6.119 -0.196)" fill="#c2f0ca"/>
        <rect id="Rectangle_24" data-name="Rectangle 24" width="139" height="21" rx="10.5" transform="translate(0.119 45.804)" fill="#dcdcdc"/>
        <rect id="Rectangle_25" data-name="Rectangle 25" width="139" height="20" rx="10" transform="translate(0.119 86.804)" fill="#dcdcdc"/>
        <rect id="Rectangle_26" data-name="Rectangle 26" width="139" height="21" rx="10.5" transform="translate(0.119 126.804)" fill="#dcdcdc"/>
      </g>
      <g transform="matrix(1, 0, 0, 1, -1171, -179.9)" filter="url(#Rectangle_33)">
        <rect id="Rectangle_33-10" data-name="Rectangle 33" width="198" height="249" transform="translate(1171 180)" fill="#fff"/>
      </g>
      <rect id="Rectangle_34" data-name="Rectangle 34" width="123" height="19" rx="9.5" transform="translate(40 204.1)" fill="#79bcd4"/>
      <g id="Group_5" data-name="Group 5" transform="translate(31.881 35.297)">
        <rect id="Rectangle_23-2" data-name="Rectangle 23" width="129" height="22" rx="11" transform="translate(6.119 -0.196)" fill="#c2f0ca"/>
        <rect id="Rectangle_24-2" data-name="Rectangle 24" width="139" height="21" rx="10.5" transform="translate(0.119 45.804)" fill="#dcdcdc"/>
        <rect id="Rectangle_25-2" data-name="Rectangle 25" width="139" height="20" rx="10" transform="translate(0.119 86.804)" fill="#dcdcdc"/>
        <rect id="Rectangle_26-2" data-name="Rectangle 26" width="139" height="21" rx="10.5" transform="translate(0.119 126.804)" fill="#dcdcdc"/>
      </g>
    </g>
    <g id="Group_24" data-name="Group 24" transform="translate(1560.442 501.9)">
      <g transform="matrix(1, 0, 0, 1, -1396.44, -179.9)" filter="url(#Rectangle_32-2)">
        <rect id="Rectangle_32-5" data-name="Rectangle 32" width="179" height="244" transform="translate(1408 180)" fill="#fff"/>
      </g>
      <rect id="Rectangle_1-3" data-name="Rectangle 1" width="123" height="19" rx="9.5" transform="translate(39.558 204.1)" fill="#79bcd4"/>
      <g id="Group_4-2" data-name="Group 4" transform="translate(31.881 35.297)">
        <rect id="Rectangle_23-3" data-name="Rectangle 23" width="130" height="22" rx="11" transform="translate(5.677 -0.196)" fill="#c2f0ca"/>
        <rect id="Rectangle_24-3" data-name="Rectangle 24" width="139" height="21" rx="10.5" transform="translate(-0.323 45.804)" fill="#dcdcdc"/>
        <rect id="Rectangle_25-3" data-name="Rectangle 25" width="139" height="20" rx="10" transform="translate(-0.323 86.804)" fill="#dcdcdc"/>
        <rect id="Rectangle_26-3" data-name="Rectangle 26" width="139" height="21" rx="10.5" transform="translate(-0.323 126.804)" fill="#dcdcdc"/>
      </g>
      <g transform="matrix(1, 0, 0, 1, -1396.44, -179.9)" filter="url(#Rectangle_33-2)">
        <rect id="Rectangle_33-11" data-name="Rectangle 33" width="199" height="249" transform="translate(1396 180)" fill="#fff"/>
      </g>
      <rect id="Rectangle_34-2" data-name="Rectangle 34" width="123" height="19" rx="9.5" transform="translate(39.558 204.1)" fill="#79bcd4"/>
      <g id="Group_5-2" data-name="Group 5" transform="translate(31.881 35.297)">
        <rect id="Rectangle_23-4" data-name="Rectangle 23" width="130" height="22" rx="11" transform="translate(5.677 -0.196)" fill="#c2f0ca"/>
        <rect id="Rectangle_24-4" data-name="Rectangle 24" width="139" height="21" rx="10.5" transform="translate(-0.323 45.804)" fill="#dcdcdc"/>
        <rect id="Rectangle_25-4" data-name="Rectangle 25" width="139" height="20" rx="10" transform="translate(-0.323 86.804)" fill="#dcdcdc"/>
        <rect id="Rectangle_26-4" data-name="Rectangle 26" width="139" height="21" rx="10.5" transform="translate(-0.323 126.804)" fill="#dcdcdc"/>
      </g>
    </g>
    <rect id="Rectangle_86" data-name="Rectangle 86" width="167" height="14" rx="7" transform="translate(1576 437)" fill="#f8ffc9"/>
    <rect id="Rectangle_87" data-name="Rectangle 87" width="103" height="15" rx="7.5" transform="translate(1608 464)" fill="#e5a0a0"/>
    <g id="Group_25" data-name="Group 25" transform="translate(1785.884 501.9)">
      <g transform="matrix(1, 0, 0, 1, -1621.88, -179.9)" filter="url(#Rectangle_32-3)">
        <rect id="Rectangle_32-6" data-name="Rectangle 32" width="179" height="244" transform="translate(1634 180)" fill="#fff"/>
      </g>
      <rect id="Rectangle_1-4" data-name="Rectangle 1" width="123" height="19" rx="9.5" transform="translate(40.116 204.1)" fill="#79bcd4"/>
      <g id="Group_4-3" data-name="Group 4" transform="translate(31.881 35.297)">
        <rect id="Rectangle_23-5" data-name="Rectangle 23" width="130" height="22" rx="11" transform="translate(5.235 -0.196)" fill="#c2f0ca"/>
        <rect id="Rectangle_24-5" data-name="Rectangle 24" width="139" height="21" rx="10.5" transform="translate(0.235 45.804)" fill="#dcdcdc"/>
        <rect id="Rectangle_25-5" data-name="Rectangle 25" width="139" height="20" rx="10" transform="translate(0.235 86.804)" fill="#dcdcdc"/>
        <rect id="Rectangle_26-5" data-name="Rectangle 26" width="139" height="21" rx="10.5" transform="translate(0.235 126.804)" fill="#dcdcdc"/>
      </g>
      <g transform="matrix(1, 0, 0, 1, -1621.88, -179.9)" filter="url(#Rectangle_33-3)">
        <rect id="Rectangle_33-12" data-name="Rectangle 33" width="198" height="249" transform="translate(1622 180)" fill="#fff"/>
      </g>
      <rect id="Rectangle_34-3" data-name="Rectangle 34" width="123" height="19" rx="9.5" transform="translate(40.116 204.1)" fill="#79bcd4"/>
      <g id="Group_5-3" data-name="Group 5" transform="translate(31.881 35.297)">
        <rect id="Rectangle_23-6" data-name="Rectangle 23" width="130" height="22" rx="11" transform="translate(5.235 -0.196)" fill="#c2f0ca"/>
        <rect id="Rectangle_24-6" data-name="Rectangle 24" width="139" height="21" rx="10.5" transform="translate(0.235 45.804)" fill="#dcdcdc"/>
        <rect id="Rectangle_25-6" data-name="Rectangle 25" width="139" height="20" rx="10" transform="translate(0.235 86.804)" fill="#dcdcdc"/>
        <rect id="Rectangle_26-6" data-name="Rectangle 26" width="139" height="21" rx="10.5" transform="translate(0.235 126.804)" fill="#dcdcdc"/>
      </g>
    </g>
  </g>
  <g id="Group_27" data-name="Group 27" transform="translate(1171 500)">
    <g transform="matrix(1, 0, 0, 1, -1171, -500)" filter="url(#Rectangle_33-4)">
      <rect id="Rectangle_33-13" data-name="Rectangle 33" width="164" height="206" transform="translate(1171 500)" fill="#fff"/>
    </g>
    <rect id="Rectangle_23-7" data-name="Rectangle 23" width="106" height="19" rx="9.5" transform="translate(31 106)" fill="#c2f0ca"/>
    <rect id="Rectangle_24-7" data-name="Rectangle 24" width="80" height="12" rx="6" transform="translate(42 136)" fill="#dcdcdc"/>
    <rect id="Rectangle_36" data-name="Rectangle 36" width="106" height="79" transform="translate(29 16)" fill="#dcdcdc"/>
    <rect id="Rectangle_37" data-name="Rectangle 37" width="80" height="13" rx="6.5" transform="translate(42 155)" fill="#dcdcdc"/>
    <circle id="Ellipse_7" data-name="Ellipse 7" cx="8.5" cy="8.5" r="8.5" transform="translate(39 176)" fill="#e5a0a0"/>
    <ellipse id="Ellipse_8" data-name="Ellipse 8" cx="9" cy="8.5" rx="9" ry="8.5" transform="translate(61 176)" fill="#79bcd4"/>
    <ellipse id="Ellipse_9" data-name="Ellipse 9" cx="9.5" cy="8.5" rx="9.5" ry="8.5" transform="translate(83 176)" fill="#c2f0ca"/>
    <ellipse id="Ellipse_10" data-name="Ellipse 10" cx="8" cy="8.5" rx="8" ry="8.5" transform="translate(107 176)" fill="#f8ffc9"/>
  </g>
  <g id="Group_28" data-name="Group 28" transform="translate(1414.225 500)">
    <g transform="matrix(1, 0, 0, 1, -1414.22, -500)" filter="url(#Rectangle_33-5)">
      <rect id="Rectangle_33-14" data-name="Rectangle 33" width="164" height="206" transform="translate(1414 500)" fill="#fff"/>
    </g>
    <rect id="Rectangle_23-8" data-name="Rectangle 23" width="107" height="19" rx="9.5" transform="translate(30.775 106)" fill="#c2f0ca"/>
    <rect id="Rectangle_24-8" data-name="Rectangle 24" width="79" height="12" rx="6" transform="translate(42.775 136)" fill="#dcdcdc"/>
    <rect id="Rectangle_36-2" data-name="Rectangle 36" width="103" height="79" transform="translate(29.775 16)" fill="#dcdcdc"/>
    <rect id="Rectangle_37-2" data-name="Rectangle 37" width="79" height="13" rx="6.5" transform="translate(42.775 155)" fill="#dcdcdc"/>
    <ellipse id="Ellipse_7-2" data-name="Ellipse 7" cx="8" cy="8.5" rx="8" ry="8.5" transform="translate(38.775 176)" fill="#e5a0a0"/>
    <ellipse id="Ellipse_8-2" data-name="Ellipse 8" cx="9.5" cy="8.5" rx="9.5" ry="8.5" transform="translate(59.775 176)" fill="#79bcd4"/>
    <circle id="Ellipse_9-2" data-name="Ellipse 9" cx="8.5" cy="8.5" r="8.5" transform="translate(83.775 176)" fill="#c2f0ca"/>
    <circle id="Ellipse_10-2" data-name="Ellipse 10" cx="8.5" cy="8.5" r="8.5" transform="translate(106.775 176)" fill="#f8ffc9"/>
  </g>
  <g id="Group_29" data-name="Group 29" transform="translate(1656.275 500)">
    <g transform="matrix(1, 0, 0, 1, -1656.27, -500)" filter="url(#Rectangle_33-6)">
      <rect id="Rectangle_33-15" data-name="Rectangle 33" width="164" height="206" transform="translate(1656 500)" fill="#fff"/>
    </g>
    <rect id="Rectangle_23-9" data-name="Rectangle 23" width="107" height="19" rx="9.5" transform="translate(30.725 106)" fill="#c2f0ca"/>
    <rect id="Rectangle_24-9" data-name="Rectangle 24" width="78" height="12" rx="6" transform="translate(43.725 136)" fill="#dcdcdc"/>
    <rect id="Rectangle_36-3" data-name="Rectangle 36" width="104" height="79" transform="translate(29.725 16)" fill="#dcdcdc"/>
    <rect id="Rectangle_37-3" data-name="Rectangle 37" width="78" height="13" rx="6.5" transform="translate(43.725 155)" fill="#dcdcdc"/>
    <circle id="Ellipse_7-3" data-name="Ellipse 7" cx="8.5" cy="8.5" r="8.5" transform="translate(39.725 176)" fill="#e5a0a0"/>
    <ellipse id="Ellipse_8-3" data-name="Ellipse 8" cx="9" cy="8.5" rx="9" ry="8.5" transform="translate(60.725 176)" fill="#79bcd4"/>
    <ellipse id="Ellipse_9-3" data-name="Ellipse 9" cx="8" cy="8.5" rx="8" ry="8.5" transform="translate(84.725 176)" fill="#c2f0ca"/>
    <ellipse id="Ellipse_10-3" data-name="Ellipse 10" cx="9.5" cy="8.5" rx="9.5" ry="8.5" transform="translate(105.725 176)" fill="#f8ffc9"/>
  </g>
  <g id="Group_30" data-name="Group 30" transform="translate(1171 742.05)">
    <g transform="matrix(1, 0, 0, 1, -1171, -742.05)" filter="url(#Rectangle_33-7)">
      <rect id="Rectangle_33-16" data-name="Rectangle 33" width="164" height="204" transform="translate(1171 742)" fill="#fff"/>
    </g>
    <rect id="Rectangle_23-10" data-name="Rectangle 23" width="106" height="19" rx="9.5" transform="translate(31 105.95)" fill="#c2f0ca"/>
    <rect id="Rectangle_24-10" data-name="Rectangle 24" width="80" height="13" rx="6.5" transform="translate(42 134.95)" fill="#dcdcdc"/>
    <rect id="Rectangle_36-4" data-name="Rectangle 36" width="106" height="78" transform="translate(29 15.95)" fill="#dcdcdc"/>
    <rect id="Rectangle_37-4" data-name="Rectangle 37" width="80" height="12" rx="6" transform="translate(42 154.95)" fill="#dcdcdc"/>
    <circle id="Ellipse_7-4" data-name="Ellipse 7" cx="8.5" cy="8.5" r="8.5" transform="translate(39 175.95)" fill="#e5a0a0"/>
    <ellipse id="Ellipse_8-4" data-name="Ellipse 8" cx="9" cy="8.5" rx="9" ry="8.5" transform="translate(61 175.95)" fill="#79bcd4"/>
    <ellipse id="Ellipse_9-4" data-name="Ellipse 9" cx="9.5" cy="8.5" rx="9.5" ry="8.5" transform="translate(83 175.95)" fill="#c2f0ca"/>
    <ellipse id="Ellipse_10-4" data-name="Ellipse 10" cx="8" cy="8.5" rx="8" ry="8.5" transform="translate(107 175.95)" fill="#f8ffc9"/>
  </g>
  <g id="Group_31" data-name="Group 31" transform="translate(1414.225 742.05)">
    <g transform="matrix(1, 0, 0, 1, -1414.22, -742.05)" filter="url(#Rectangle_33-8)">
      <rect id="Rectangle_33-17" data-name="Rectangle 33" width="164" height="204" transform="translate(1414 742)" fill="#fff"/>
    </g>
    <rect id="Rectangle_23-11" data-name="Rectangle 23" width="107" height="19" rx="9.5" transform="translate(30.775 105.95)" fill="#c2f0ca"/>
    <rect id="Rectangle_24-11" data-name="Rectangle 24" width="79" height="13" rx="6.5" transform="translate(42.775 134.95)" fill="#dcdcdc"/>
    <rect id="Rectangle_36-5" data-name="Rectangle 36" width="103" height="78" transform="translate(29.775 15.95)" fill="#dcdcdc"/>
    <rect id="Rectangle_37-5" data-name="Rectangle 37" width="79" height="12" rx="6" transform="translate(42.775 154.95)" fill="#dcdcdc"/>
    <ellipse id="Ellipse_7-5" data-name="Ellipse 7" cx="8" cy="8.5" rx="8" ry="8.5" transform="translate(38.775 175.95)" fill="#e5a0a0"/>
    <ellipse id="Ellipse_8-5" data-name="Ellipse 8" cx="9.5" cy="8.5" rx="9.5" ry="8.5" transform="translate(59.775 175.95)" fill="#79bcd4"/>
    <circle id="Ellipse_9-5" data-name="Ellipse 9" cx="8.5" cy="8.5" r="8.5" transform="translate(83.775 175.95)" fill="#c2f0ca"/>
    <circle id="Ellipse_10-5" data-name="Ellipse 10" cx="8.5" cy="8.5" r="8.5" transform="translate(106.775 175.95)" fill="#f8ffc9"/>
  </g>
  <g id="Group_32" data-name="Group 32" transform="translate(1656.275 742.05)">
    <g transform="matrix(1, 0, 0, 1, -1656.27, -742.05)" filter="url(#Rectangle_33-9)">
      <rect id="Rectangle_33-18" data-name="Rectangle 33" width="164" height="204" transform="translate(1656 742)" fill="#fff"/>
    </g>
    <rect id="Rectangle_23-12" data-name="Rectangle 23" width="107" height="19" rx="9.5" transform="translate(30.725 105.95)" fill="#c2f0ca"/>
    <rect id="Rectangle_24-12" data-name="Rectangle 24" width="78" height="13" rx="6.5" transform="translate(43.725 134.95)" fill="#dcdcdc"/>
    <rect id="Rectangle_36-6" data-name="Rectangle 36" width="104" height="78" transform="translate(29.725 15.95)" fill="#dcdcdc"/>
    <rect id="Rectangle_37-6" data-name="Rectangle 37" width="78" height="12" rx="6" transform="translate(43.725 154.95)" fill="#dcdcdc"/>
    <circle id="Ellipse_7-6" data-name="Ellipse 7" cx="8.5" cy="8.5" r="8.5" transform="translate(39.725 175.95)" fill="#e5a0a0"/>
    <ellipse id="Ellipse_8-6" data-name="Ellipse 8" cx="9" cy="8.5" rx="9" ry="8.5" transform="translate(60.725 175.95)" fill="#79bcd4"/>
    <ellipse id="Ellipse_9-6" data-name="Ellipse 9" cx="8" cy="8.5" rx="8" ry="8.5" transform="translate(84.725 175.95)" fill="#c2f0ca"/>
    <ellipse id="Ellipse_10-6" data-name="Ellipse 10" cx="9.5" cy="8.5" rx="9.5" ry="8.5" transform="translate(105.725 175.95)" fill="#f8ffc9"/>
  </g>
  <g id="Group_33" data-name="Group 33" transform="translate(9 68)">
    <g transform="matrix(1, 0, 0, 1, -9, -68)" filter="url(#Rectangle_88)">
      <rect id="Rectangle_88-2" data-name="Rectangle 88" width="173" height="432" transform="translate(9 68)" fill="#fff"/>
    </g>
    <rect id="Rectangle_89" data-name="Rectangle 89" width="80" height="20" rx="10" transform="translate(62 21)" fill="#dcdcdc"/>
    <rect id="Rectangle_90" data-name="Rectangle 90" width="80" height="20" rx="10" transform="translate(62 55)" fill="#dcdcdc"/>
    <circle id="Ellipse_28" data-name="Ellipse 28" cx="12" cy="12" r="12" transform="translate(21 19)" fill="#79bcd4"/>
    <circle id="Ellipse_29" data-name="Ellipse 29" cx="12" cy="12" r="12" transform="translate(21 53)" fill="#c2f0ca"/>
    <rect id="Rectangle_91" data-name="Rectangle 91" width="80" height="20" rx="10" transform="translate(62 89)" fill="#dcdcdc"/>
    <circle id="Ellipse_30" data-name="Ellipse 30" cx="12" cy="12" r="12" transform="translate(21 87)" fill="#f8ffc9"/>
    <rect id="Rectangle_92" data-name="Rectangle 92" width="80" height="20" rx="10" transform="translate(62 123)" fill="#dcdcdc"/>
    <circle id="Ellipse_31" data-name="Ellipse 31" cx="12" cy="12" r="12" transform="translate(21 121)" fill="#e5a0a0"/>
    <rect id="Rectangle_93" data-name="Rectangle 93" width="80" height="20" rx="10" transform="translate(62 157)" fill="#dcdcdc"/>
    <circle id="Ellipse_32" data-name="Ellipse 32" cx="12" cy="12" r="12" transform="translate(21 155)" fill="#79bcd4"/>
    <rect id="Rectangle_94" data-name="Rectangle 94" width="80" height="20" rx="10" transform="translate(62 211)" fill="#dcdcdc"/>
    <circle id="Ellipse_33" data-name="Ellipse 33" cx="12" cy="12" r="12" transform="translate(21 209)" fill="#f8ffc9"/>
    <rect id="Rectangle_95" data-name="Rectangle 95" width="80" height="20" rx="10" transform="translate(62 245)" fill="#dcdcdc"/>
    <circle id="Ellipse_34" data-name="Ellipse 34" cx="12" cy="12" r="12" transform="translate(21 243)" fill="#c2f0ca"/>
    <rect id="Rectangle_96" data-name="Rectangle 96" width="80" height="20" rx="10" transform="translate(62 279)" fill="#dcdcdc"/>
    <circle id="Ellipse_35" data-name="Ellipse 35" cx="12" cy="12" r="12" transform="translate(21 277)" fill="#79bcd4"/>
    <line id="Line_2" data-name="Line 2" x2="155.301" transform="translate(9.406 195.928)" fill="none" stroke="#cfc8c8" stroke-width="1"/>
    <circle id="Ellipse_36" data-name="Ellipse 36" cx="12" cy="12" r="12" transform="translate(21 397)" fill="#e5a0a0"/>
    <circle id="Ellipse_37" data-name="Ellipse 37" cx="12" cy="12" r="12" transform="translate(70 397)" fill="#79bcd4"/>
    <circle id="Ellipse_38" data-name="Ellipse 38" cx="12" cy="12" r="12" transform="translate(119 397)" fill="#c2f0ca"/>
  </g>
  <g transform="matrix(1, 0, 0, 1, 0, 0)" filter="url(#Rectangle_97)">
    <rect id="Rectangle_97-2" data-name="Rectangle 97" width="1091" height="82" transform="translate(25 605)" fill="#fff"/>
  </g>
  <rect id="Rectangle_98" data-name="Rectangle 98" width="650" height="21" rx="10.5" transform="translate(66 621)" fill="#c2f0ca"/>
  <rect id="Rectangle_99" data-name="Rectangle 99" width="604" height="20" rx="10" transform="translate(66 651)" fill="#dcdcdc"/>
  <rect id="Rectangle_100" data-name="Rectangle 100" width="128" height="38" rx="18" transform="translate(808 632)" fill="#79bcd4"/>
  <rect id="Rectangle_101" data-name="Rectangle 101" width="128" height="38" rx="18" transform="translate(964 632)" fill="#79bcd4"/>
  <g transform="matrix(1, 0, 0, 1, 0, 0)" filter="url(#Rectangle_102)">
    <rect id="Rectangle_102-2" data-name="Rectangle 102" width="762" height="62" transform="translate(634 6)" fill="#fff"/>
  </g>
  <rect id="Rectangle_103" data-name="Rectangle 103" width="66" height="17" rx="8.5" transform="translate(846 26)" fill="#dcdcdc"/>
  <rect id="Rectangle_104" data-name="Rectangle 104" width="103" height="26" rx="13" transform="translate(1276 24)" fill="#79bcd4"/>
  <rect id="Rectangle_105" data-name="Rectangle 105" width="65" height="17" rx="8.5" transform="translate(693 26)" fill="#dcdcdc"/>
  <circle id="Ellipse_39" data-name="Ellipse 39" cx="15.5" cy="15.5" r="15.5" transform="translate(654 19)" fill="#e5a0a0"/>
  <rect id="Rectangle_106" data-name="Rectangle 106" width="66" height="17" rx="8.5" transform="translate(928 26)" fill="#dcdcdc"/>
  <rect id="Rectangle_107" data-name="Rectangle 107" width="66" height="17" rx="8.5" transform="translate(1010 26)" fill="#dcdcdc"/>
  <rect id="Rectangle_108" data-name="Rectangle 108" width="66" height="17" rx="8.5" transform="translate(1092 26)" fill="#dcdcdc"/>
  <rect id="Rectangle_109" data-name="Rectangle 109" width="65" height="17" rx="8.5" transform="translate(1175 26)" fill="#dcdcdc"/>
  <g transform="matrix(1, 0, 0, 1, 0, 0)" filter="url(#Rectangle_119)">
    <rect id="Rectangle_119-2" data-name="Rectangle 119" width="370" height="228" transform="translate(182 770)" fill="#fff"/>
  </g>
  <circle id="Ellipse_41" data-name="Ellipse 41" cx="22" cy="22" r="22" transform="translate(345 795)" fill="#c2f0ca"/>
  <rect id="Rectangle_120" data-name="Rectangle 120" width="214" height="26" rx="13" transform="translate(260 858)" fill="#dcdcdc"/>
  <rect id="Rectangle_121" data-name="Rectangle 121" width="135" height="33" transform="translate(305 942)" fill="#79bcd4"/>
  <rect id="Rectangle_122" data-name="Rectangle 122" width="170" height="20" rx="10" transform="translate(287 903)" fill="#dcdcdc"/>
  <circle id="Ellipse_42" data-name="Ellipse 42" cx="14.5" cy="14.5" r="14.5" transform="translate(516 775)" fill="#79bcd4"/>
  <rect id="Rectangle_130" data-name="Rectangle 130" width="307" height="17" rx="8.5" transform="translate(731 829)" fill="#dcdcdc"/>
  <rect id="Rectangle_131" data-name="Rectangle 131" width="131" height="19" transform="translate(744 794)" fill="#79bcd4"/>
  <rect id="Rectangle_132" data-name="Rectangle 132" width="60" height="15" rx="7.5" transform="translate(731 765)" fill="#dcdcdc"/>
  <ellipse id="Ellipse_43" data-name="Ellipse 43" cx="8.5" cy="8" rx="8.5" ry="8" transform="translate(1042 759)" fill="#e5a0a0"/>
  <rect id="Rectangle_133" data-name="Rectangle 133" width="130" height="19" transform="translate(900 794)" fill="#c2f0ca"/>
  <rect id="Rectangle_134" data-name="Rectangle 134" width="307" height="17" rx="8.5" transform="translate(731 858)" fill="#dcdcdc"/>
  <rect id="Rectangle_135" data-name="Rectangle 135" width="307" height="17" rx="8.5" transform="translate(731 889)" fill="#dcdcdc"/>
  <rect id="Rectangle_137" data-name="Rectangle 137" width="307" height="25" transform="translate(731 952)" fill="#f8ffc9"/>
  <rect id="Rectangle_136" data-name="Rectangle 136" width="307" height="16" rx="8" transform="translate(731 920)" fill="#dcdcdc"/>
</svg>
