<svg xmlns="http://www.w3.org/2000/svg" xmlns:xlink="http://www.w3.org/1999/xlink" width="1920" height="1080" viewBox="0 0 1920 1080">
  <defs>
    <filter id="Rectangle_51" x="462" y="181" width="1001" height="704" filterUnits="userSpaceOnUse">
      <feOffset dx="2" dy="3" input="SourceAlpha"/>
      <feGaussianBlur stdDeviation="3" result="blur"/>
      <feFlood flood-opacity="0.161"/>
      <feComposite operator="in" in2="blur"/>
      <feComposite in="SourceGraphic"/>
    </filter>
  </defs>
  <rect id="Rectangle_50" data-name="Rectangle 50" width="1920" height="1080" fill="rgba(83,83,83,0.63)" style="mix-blend-mode: darken;isolation: isolate"/>
  <g transform="matrix(1, 0, 0, 1, 0, 0)" filter="url(#Rectangle_51)" style="mix-blend-mode: color-dodge;isolation: isolate">
    <g id="Rectangle_51-2" data-name="Rectangle 51" transform="translate(469 187)" fill="#fff" stroke="#707070" stroke-width="1">
      <rect width="983" height="686" stroke="none"/>
      <rect x="0.5" y="0.5" width="982" height="685" fill="none"/>
    </g>
  </g>
  <rect id="Rectangle_52" data-name="Rectangle 52" width="846" height="44" rx="22" transform="translate(509 400)" fill="#dcdcdc"/>
  <rect id="Rectangle_53" data-name="Rectangle 53" width="359" height="50" transform="translate(545 306)" fill="#79bcd4"/>
  <rect id="Rectangle_54" data-name="Rectangle 54" width="163" height="42" rx="21" transform="translate(509 224)" fill="#dcdcdc"/>
  <circle id="Ellipse_24" data-name="Ellipse 24" cx="22.5" cy="22.5" r="22.5" transform="translate(1367 208)" fill="#e5a0a0"/>
  <rect id="Rectangle_58" data-name="Rectangle 58" width="359" height="50" transform="translate(974 306)" fill="#c2f0ca"/>
  <rect id="Rectangle_59" data-name="Rectangle 59" width="846" height="44" rx="22" transform="translate(509 484)" fill="#dcdcdc"/>
  <rect id="Rectangle_60" data-name="Rectangle 60" width="846" height="44" rx="22" transform="translate(509 569)" fill="#dcdcdc"/>
  <rect id="Rectangle_61" data-name="Rectangle 61" width="846" height="44" rx="22" transform="translate(509 653)" fill="#dcdcdc"/>
  <rect id="Rectangle_62" data-name="Rectangle 62" width="846" height="67" transform="translate(509 741)" fill="#f8ffc9"/>
</svg>
