<svg xmlns="http://www.w3.org/2000/svg" xmlns:xlink="http://www.w3.org/1999/xlink" width="1920" height="1080" viewBox="0 0 1920 1080">
  <defs>
    <filter id="Path_54" x="216" y="303" width="431" height="228" filterUnits="userSpaceOnUse">
      <feOffset dy="3" input="SourceAlpha"/>
      <feGaussianBlur stdDeviation="3" result="blur"/>
      <feFlood flood-opacity="0.161"/>
      <feComposite operator="in" in2="blur"/>
      <feComposite in="SourceGraphic"/>
    </filter>
    <filter id="Path_56" x="745" y="303" width="431" height="228" filterUnits="userSpaceOnUse">
      <feOffset dy="3" input="SourceAlpha"/>
      <feGaussianBlur stdDeviation="3" result="blur-2"/>
      <feFlood flood-opacity="0.161"/>
      <feComposite operator="in" in2="blur-2"/>
      <feComposite in="SourceGraphic"/>
    </filter>
    <filter id="Path_57" x="1274" y="303" width="431" height="228" filterUnits="userSpaceOnUse">
      <feOffset dy="3" input="SourceAlpha"/>
      <feGaussianBlur stdDeviation="3" result="blur-3"/>
      <feFlood flood-opacity="0.161"/>
      <feComposite operator="in" in2="blur-3"/>
      <feComposite in="SourceGraphic"/>
    </filter>
  </defs>
  <rect id="Rectangle_218" data-name="Rectangle 218" width="1920" height="1080" fill="#fff"/>
  <rect id="Rectangle_219" data-name="Rectangle 219" width="319" height="45" rx="22.5" transform="translate(238 204)" fill="#717373"/>
  <g transform="matrix(1, 0, 0, 1, 0, 0)" filter="url(#Path_54)">
    <path id="Path_54-2" data-name="Path 54" d="M23,0H390c12.7,0,23,4.1,23,9.165v191.67C413,205.9,402.7,210,390,210H23c-12.7,0-23-4.1-23-9.165V9.165C0,4.1,10.3,0,23,0Z" transform="translate(225 309)" fill="#5cb9da"/>
  </g>
  <g transform="matrix(1, 0, 0, 1, 0, 0)" filter="url(#Path_56)">
    <path id="Path_56-2" data-name="Path 56" d="M23,0H390c12.7,0,23,4.1,23,9.165v191.67C413,205.9,402.7,210,390,210H23c-12.7,0-23-4.1-23-9.165V9.165C0,4.1,10.3,0,23,0Z" transform="translate(754 309)" fill="#9adba5"/>
  </g>
  <g transform="matrix(1, 0, 0, 1, 0, 0)" filter="url(#Path_57)">
    <path id="Path_57-2" data-name="Path 57" d="M23,0H390c12.7,0,23,4.1,23,9.165v191.67C413,205.9,402.7,210,390,210H23c-12.7,0-23-4.1-23-9.165V9.165C0,4.1,10.3,0,23,0Z" transform="translate(1283 309)" fill="#fb9191"/>
  </g>
  <rect id="Rectangle_226" data-name="Rectangle 226" width="413" height="45" rx="22.5" transform="translate(225 551)" fill="#dcdcdc"/>
  <rect id="Rectangle_280" data-name="Rectangle 280" width="413" height="45" rx="22.5" transform="translate(222 628)" fill="#dcdcdc"/>
  <rect id="Rectangle_281" data-name="Rectangle 281" width="413" height="45" rx="22.5" transform="translate(225 705)" fill="#dcdcdc"/>
  <rect id="Rectangle_282" data-name="Rectangle 282" width="413" height="45" rx="22.5" transform="translate(757 551)" fill="#dcdcdc"/>
  <rect id="Rectangle_283" data-name="Rectangle 283" width="413" height="45" rx="22.5" transform="translate(754 628)" fill="#dcdcdc"/>
  <rect id="Rectangle_284" data-name="Rectangle 284" width="413" height="45" rx="22.5" transform="translate(757 705)" fill="#dcdcdc"/>
  <rect id="Rectangle_285" data-name="Rectangle 285" width="413" height="45" rx="22.5" transform="translate(1286 551)" fill="#dcdcdc"/>
  <rect id="Rectangle_286" data-name="Rectangle 286" width="413" height="45" rx="22.5" transform="translate(1283 628)" fill="#dcdcdc"/>
  <rect id="Rectangle_287" data-name="Rectangle 287" width="413" height="45" rx="22.5" transform="translate(1286 705)" fill="#dcdcdc"/>
  <rect id="Rectangle_288" data-name="Rectangle 288" width="319" height="45" rx="22.5" transform="translate(225 782)" fill="#717373"/>
  <rect id="Rectangle_289" data-name="Rectangle 289" width="319" height="45" rx="22.5" transform="translate(1283 797)" fill="#717373"/>
  <rect id="Rectangle_290" data-name="Rectangle 290" width="319" height="45" rx="22.5" transform="translate(757 797)" fill="#717373"/>
</svg>
